M48
; DRILL file {KiCad (6.0.4-0)} date Monday, September 19, 2022 at 10:18:20 PM
; FORMAT={2:4/ absolute / inch / suppress leading zeros}
; #@! TF.CreationDate,2022-09-19T22:18:20-04:00
; #@! TF.GenerationSoftware,Kicad,Pcbnew,(6.0.4-0)
; #@! TF.FileFunction,Plated,1,2,PTH
FMAT,2
INCH,TZ
; #@! TA.AperFunction,Plated,PTH,ViaDrill
T1C0.0250
; #@! TA.AperFunction,Plated,PTH,ComponentDrill
T2C0.0315
; #@! TA.AperFunction,Plated,PTH,ComponentDrill
T3C0.0394
; #@! TA.AperFunction,Plated,PTH,ComponentDrill
T4C0.0433
%
G90
G05
T1
X26385Y-39400
X27419Y-43020
T2
X29000Y-32000
X29000Y-33000
X29000Y-34000
X29000Y-35000
X29000Y-36000
X29000Y-37000
X29000Y-38000
X29000Y-39000
X29000Y-40000
X29000Y-41000
X29000Y-42000
X29000Y-43000
X29000Y-44000
X29000Y-45000
X31031Y-30500
X32250Y-49000
X33000Y-30500
X35000Y-32000
X35000Y-33000
X35000Y-34000
X35000Y-35000
X35000Y-36000
X35000Y-37000
X35000Y-38000
X35000Y-39000
X35000Y-40000
X35000Y-41000
X35000Y-42000
X35000Y-43000
X35000Y-44000
X35000Y-45000
X35250Y-49000
X37000Y-29500
X37000Y-31469
X37000Y-32531
X37000Y-34500
X37000Y-37500
X37000Y-38750
X37000Y-40000
X37031Y-36250
X37500Y-44500
X37500Y-45500
X37500Y-46500
X37500Y-47500
X37531Y-49000
X38358Y-31071
X38358Y-33000
X38969Y-40000
X39000Y-36250
X39500Y-49000
X40000Y-37500
X40000Y-38750
X40016Y-42000
X40500Y-44500
X40500Y-45500
X40500Y-46500
X40500Y-47500
X41000Y-36250
X41000Y-42000
X42000Y-29713
X42000Y-34358
X42500Y-44500
X42500Y-47500
X44000Y-36250
X45500Y-39516
X45500Y-40500
X45500Y-42500
X45500Y-43484
X45500Y-45516
X45500Y-46500
X48500Y-40016
X48500Y-41984
X50500Y-40016
X50500Y-41984
T3
X46329Y-31297
X46329Y-32281
X46329Y-33266
X46750Y-36500
X46750Y-37500
X50000Y-44516
X50000Y-45500
X50000Y-46484
X50250Y-36500
X50250Y-37500
T2
G00X48435Y-30313
M15
G01X48159Y-30313
M16
G05
G00X48435Y-31297
M15
G01X48159Y-31297
M16
G05
G00X48435Y-33266
M15
G01X48159Y-33266
M16
G05
G00X48435Y-34250
M15
G01X48159Y-34250
M16
G05
G00X50266Y-32419
M15
G01X50266Y-32144
M16
G05
T4
G00X48386Y-43768
M15
G01X48386Y-43492
M16
G05
G00X48386Y-47508
M15
G01X48386Y-47232
M16
G05
T0
M30
