M48
; DRILL file {KiCad (6.0.4-0)} date Saturday, July 16, 2022 at 01:11:53 PM
; FORMAT={2:4/ absolute / inch / suppress leading zeros}
; #@! TF.CreationDate,2022-07-16T13:11:53-04:00
; #@! TF.GenerationSoftware,Kicad,Pcbnew,(6.0.4-0)
; #@! TF.FileFunction,Plated,1,2,PTH
FMAT,2
INCH,TZ
; #@! TA.AperFunction,Plated,PTH,ViaDrill
T1C0.0250
; #@! TA.AperFunction,Plated,PTH,ComponentDrill
T2C0.0315
; #@! TA.AperFunction,Plated,PTH,ComponentDrill
T3C0.0394
; #@! TA.AperFunction,Plated,PTH,ComponentDrill
T4C0.0433
%
G90
G05
T1
X27923Y-42500
T2
X29000Y-32000
X29000Y-33000
X29000Y-34000
X29000Y-35000
X29000Y-36000
X29000Y-37000
X29000Y-38000
X29000Y-39000
X29000Y-40000
X29000Y-41000
X29000Y-42000
X29000Y-43000
X29000Y-44000
X29000Y-45000
X29016Y-48500
X30000Y-48500
X31031Y-30500
X32000Y-47500
X33000Y-30500
X35000Y-32000
X35000Y-33000
X35000Y-34000
X35000Y-35000
X35000Y-36000
X35000Y-37000
X35000Y-38000
X35000Y-39000
X35000Y-40000
X35000Y-41000
X35000Y-42000
X35000Y-43000
X35000Y-44000
X35000Y-45000
X35000Y-47500
X37000Y-30000
X37000Y-33000
X37000Y-35750
X37000Y-37000
X37000Y-38250
X37500Y-41000
X37500Y-43000
X37500Y-44000
X37500Y-45000
X37500Y-46000
X37500Y-49000
X37531Y-39750
X38016Y-47500
X39469Y-41000
X39500Y-39750
X39984Y-47500
X40000Y-30000
X40000Y-33000
X40000Y-35750
X40000Y-37000
X40000Y-38250
X40500Y-43000
X40500Y-44000
X40500Y-45000
X40500Y-46000
X40500Y-49000
X41750Y-30000
X42281Y-31500
X42500Y-43000
X42500Y-46000
X43000Y-48016
X43000Y-49000
X44250Y-31500
X44500Y-43500
X44500Y-45469
X44750Y-30000
X45250Y-40016
X45250Y-41000
X46000Y-43531
X46000Y-45500
X49500Y-40000
X49500Y-40984
T3
X46329Y-31297
X46329Y-32281
X46329Y-33266
X46750Y-36500
X46750Y-37500
X50000Y-44516
X50000Y-45500
X50000Y-46484
X50250Y-36500
X50250Y-37500
T2
G00X48435Y-30313
M15
G01X48159Y-30313
M16
G05
G00X48435Y-31297
M15
G01X48159Y-31297
M16
G05
G00X48435Y-33266
M15
G01X48159Y-33266
M16
G05
G00X48435Y-34250
M15
G01X48159Y-34250
M16
G05
G00X50266Y-32419
M15
G01X50266Y-32144
M16
G05
T4
G00X48386Y-43768
M15
G01X48386Y-43492
M16
G05
G00X48386Y-47508
M15
G01X48386Y-47232
M16
G05
T0
M30
