%TF.GenerationSoftware,KiCad,Pcbnew,(6.0.4-0)*%
%TF.CreationDate,2022-09-19T22:18:13-04:00*%
%TF.ProjectId,VIC1214Reloaded-1.0-001,56494331-3231-4345-9265-6c6f61646564,rev?*%
%TF.SameCoordinates,Original*%
%TF.FileFunction,Copper,L1,Top*%
%TF.FilePolarity,Positive*%
%FSLAX46Y46*%
G04 Gerber Fmt 4.6, Leading zero omitted, Abs format (unit mm)*
G04 Created by KiCad (PCBNEW (6.0.4-0)) date 2022-09-19 22:18:13*
%MOMM*%
%LPD*%
G01*
G04 APERTURE LIST*
G04 Aperture macros list*
%AMRoundRect*
0 Rectangle with rounded corners*
0 $1 Rounding radius*
0 $2 $3 $4 $5 $6 $7 $8 $9 X,Y pos of 4 corners*
0 Add a 4 corners polygon primitive as box body*
4,1,4,$2,$3,$4,$5,$6,$7,$8,$9,$2,$3,0*
0 Add four circle primitives for the rounded corners*
1,1,$1+$1,$2,$3*
1,1,$1+$1,$4,$5*
1,1,$1+$1,$6,$7*
1,1,$1+$1,$8,$9*
0 Add four rect primitives between the rounded corners*
20,1,$1+$1,$2,$3,$4,$5,0*
20,1,$1+$1,$4,$5,$6,$7,0*
20,1,$1+$1,$6,$7,$8,$9,0*
20,1,$1+$1,$8,$9,$2,$3,0*%
G04 Aperture macros list end*
%TA.AperFunction,ComponentPad*%
%ADD10C,1.600000*%
%TD*%
%TA.AperFunction,ComponentPad*%
%ADD11O,1.600000X1.600000*%
%TD*%
%TA.AperFunction,ComponentPad*%
%ADD12R,1.600000X1.600000*%
%TD*%
%TA.AperFunction,ComponentPad*%
%ADD13O,1.308000X2.616000*%
%TD*%
%TA.AperFunction,ComponentPad*%
%ADD14O,2.616000X1.308000*%
%TD*%
%TA.AperFunction,ComponentPad*%
%ADD15C,1.508000*%
%TD*%
%TA.AperFunction,ComponentPad*%
%ADD16R,1.800000X1.800000*%
%TD*%
%TA.AperFunction,ComponentPad*%
%ADD17C,1.800000*%
%TD*%
%TA.AperFunction,ComponentPad*%
%ADD18RoundRect,0.500000X0.500000X-1.000000X0.500000X1.000000X-0.500000X1.000000X-0.500000X-1.000000X0*%
%TD*%
%TA.AperFunction,ComponentPad*%
%ADD19R,1.700000X1.700000*%
%TD*%
%TA.AperFunction,ComponentPad*%
%ADD20O,1.700000X1.700000*%
%TD*%
%TA.AperFunction,SMDPad,CuDef*%
%ADD21RoundRect,0.342900X3.784600X-0.800100X3.784600X0.800100X-3.784600X0.800100X-3.784600X-0.800100X0*%
%TD*%
%TA.AperFunction,ComponentPad*%
%ADD22C,1.500000*%
%TD*%
%TA.AperFunction,ComponentPad*%
%ADD23R,1.200000X1.200000*%
%TD*%
%TA.AperFunction,SMDPad,CuDef*%
%ADD24R,13.500000X11.000000*%
%TD*%
%TA.AperFunction,ViaPad*%
%ADD25C,0.889000*%
%TD*%
%TA.AperFunction,Conductor*%
%ADD26C,0.300000*%
%TD*%
%TA.AperFunction,Conductor*%
%ADD27C,1.000000*%
%TD*%
%TA.AperFunction,Conductor*%
%ADD28C,0.508000*%
%TD*%
G04 APERTURE END LIST*
D10*
%TO.P,C108,1*%
%TO.N,VCC*%
X128270000Y-101640000D03*
%TO.P,C108,2*%
%TO.N,GNDA*%
X128270000Y-106640000D03*
%TD*%
%TO.P,C111,1*%
%TO.N,Net-(C111-Pad1)*%
X93980000Y-101600000D03*
%TO.P,C111,2*%
%TO.N,GNDA*%
X98980000Y-101600000D03*
%TD*%
%TO.P,R104,1*%
%TO.N,Net-(C111-Pad1)*%
X93980000Y-98425000D03*
D11*
%TO.P,R104,2*%
%TO.N,Net-(C112-Pad1)*%
X101600000Y-98425000D03*
%TD*%
D12*
%TO.P,U102,1,GND*%
%TO.N,GND*%
X73660000Y-81280000D03*
D11*
%TO.P,U102,2,~{RESET}*%
%TO.N,Net-(R101-Pad1)*%
X73660000Y-83820000D03*
%TO.P,U102,3,ROM_DIS*%
%TO.N,VCC*%
X73660000Y-86360000D03*
%TO.P,U102,4,C1*%
%TO.N,unconnected-(U102-Pad4)*%
X73660000Y-88900000D03*
%TO.P,U102,5,C2*%
%TO.N,unconnected-(U102-Pad5)*%
X73660000Y-91440000D03*
%TO.P,U102,6,C3*%
%TO.N,unconnected-(U102-Pad6)*%
X73660000Y-93980000D03*
%TO.P,U102,7,VCC*%
%TO.N,VCC*%
X73660000Y-96520000D03*
%TO.P,U102,8,SBY*%
%TO.N,PB6*%
X73660000Y-99060000D03*
%TO.P,U102,9,~{LRQ}*%
%TO.N,unconnected-(U102-Pad9)*%
X73660000Y-101600000D03*
%TO.P,U102,10,A8*%
%TO.N,GND*%
X73660000Y-104140000D03*
%TO.P,U102,11,A7*%
X73660000Y-106680000D03*
%TO.P,U102,12,SER_OUT*%
%TO.N,unconnected-(U102-Pad12)*%
X73660000Y-109220000D03*
%TO.P,U102,13,A6*%
%TO.N,PB5*%
X73660000Y-111760000D03*
%TO.P,U102,14,A5*%
%TO.N,PB4*%
X73660000Y-114300000D03*
%TO.P,U102,15,A4*%
%TO.N,PB3*%
X88900000Y-114300000D03*
%TO.P,U102,16,A3*%
%TO.N,PB2*%
X88900000Y-111760000D03*
%TO.P,U102,17,A2*%
%TO.N,PB1*%
X88900000Y-109220000D03*
%TO.P,U102,18,A1*%
%TO.N,PB0*%
X88900000Y-106680000D03*
%TO.P,U102,19,SE*%
%TO.N,VCC*%
X88900000Y-104140000D03*
%TO.P,U102,20,~{ALD}*%
%TO.N,PB7*%
X88900000Y-101600000D03*
%TO.P,U102,21,SER_IN*%
%TO.N,unconnected-(U102-Pad21)*%
X88900000Y-99060000D03*
%TO.P,U102,22,TEST*%
%TO.N,GND*%
X88900000Y-96520000D03*
%TO.P,U102,23,VD1*%
%TO.N,VCC*%
X88900000Y-93980000D03*
%TO.P,U102,24,DIG_OUT*%
%TO.N,Net-(JP101-Pad1)*%
X88900000Y-91440000D03*
%TO.P,U102,25,~{SBY_RESET}*%
%TO.N,Net-(R101-Pad1)*%
X88900000Y-88900000D03*
%TO.P,U102,26,ROMCLK*%
%TO.N,unconnected-(U102-Pad26)*%
X88900000Y-86360000D03*
%TO.P,U102,27,XTAL1*%
%TO.N,Net-(C103-Pad1)*%
X88900000Y-83820000D03*
%TO.P,U102,28,XTAL2*%
%TO.N,Net-(C102-Pad1)*%
X88900000Y-81280000D03*
%TD*%
D10*
%TO.P,R101,1*%
%TO.N,Net-(R101-Pad1)*%
X107950000Y-113030000D03*
D11*
%TO.P,R101,2*%
%TO.N,VCC*%
X107950000Y-120650000D03*
%TD*%
D13*
%TO.P,J101,1*%
%TO.N,GNDA*%
X127675000Y-81995000D03*
D14*
%TO.P,J101,2*%
%TO.N,Net-(C112-Pad2)*%
X122675000Y-76995000D03*
%TO.P,J101,3*%
X122675000Y-86995000D03*
D15*
%TO.P,J101,4*%
%TO.N,unconnected-(J101-Pad4)*%
X117675000Y-84495000D03*
%TO.P,J101,5*%
%TO.N,unconnected-(J101-Pad5)*%
X117675000Y-81995000D03*
%TO.P,J101,6*%
%TO.N,unconnected-(J101-Pad6)*%
X117675000Y-79495000D03*
D14*
%TO.P,J101,10*%
%TO.N,Net-(J101-Pad10)*%
X122675000Y-79495000D03*
%TO.P,J101,11*%
%TO.N,unconnected-(J101-Pad11)*%
X122675000Y-84495000D03*
%TD*%
D12*
%TO.P,C109,1*%
%TO.N,Net-(C109-Pad1)*%
X115570000Y-107950000D03*
D10*
%TO.P,C109,2*%
%TO.N,Net-(C109-Pad2)*%
X115570000Y-110450000D03*
%TD*%
D12*
%TO.P,U103,1,GAIN*%
%TO.N,Net-(C109-Pad1)*%
X95250000Y-113030000D03*
D11*
%TO.P,U103,2,-*%
%TO.N,GNDA*%
X95250000Y-115570000D03*
%TO.P,U103,3,+*%
%TO.N,Net-(U103-Pad3)*%
X95250000Y-118110000D03*
%TO.P,U103,4,GND*%
%TO.N,GNDA*%
X95250000Y-120650000D03*
%TO.P,U103,5*%
%TO.N,Net-(C112-Pad1)*%
X102870000Y-120650000D03*
%TO.P,U103,6,V+*%
%TO.N,VCC*%
X102870000Y-118110000D03*
%TO.P,U103,7,BYPASS*%
%TO.N,Net-(C110-Pad1)*%
X102870000Y-115570000D03*
%TO.P,U103,8,GAIN*%
%TO.N,Net-(C109-Pad2)*%
X102870000Y-113030000D03*
%TD*%
D16*
%TO.P,VR101,1,1*%
%TO.N,GNDA*%
X127000000Y-118070000D03*
D17*
%TO.P,VR101,2,2*%
%TO.N,Net-(U103-Pad3)*%
X127000000Y-115570000D03*
%TO.P,VR101,3,3*%
%TO.N,Net-(C107-Pad2)*%
X127000000Y-113070000D03*
D18*
%TO.P,VR101,MP,MountPin*%
%TO.N,GNDA*%
X122900000Y-110820000D03*
X122900000Y-120320000D03*
%TD*%
D10*
%TO.P,C103,1*%
%TO.N,Net-(C103-Pad1)*%
X93980000Y-82630000D03*
%TO.P,C103,2*%
%TO.N,GND*%
X93980000Y-87630000D03*
%TD*%
D12*
%TO.P,C107,1*%
%TO.N,Net-(C106-Pad1)*%
X115570000Y-118110000D03*
D10*
%TO.P,C107,2*%
%TO.N,Net-(C107-Pad2)*%
X115570000Y-115610000D03*
%TD*%
D19*
%TO.P,LS101,1,1*%
%TO.N,Net-(J101-Pad10)*%
X127635000Y-92710000D03*
D20*
%TO.P,LS101,2,2*%
%TO.N,GNDA*%
X127635000Y-95250000D03*
%TD*%
D12*
%TO.P,C112,1*%
%TO.N,Net-(C112-Pad1)*%
X115570000Y-102870000D03*
D10*
%TO.P,C112,2*%
%TO.N,Net-(C112-Pad2)*%
X115570000Y-100370000D03*
%TD*%
%TO.P,R102,1*%
%TO.N,Net-(JP101-Pad1)*%
X111760000Y-92075000D03*
D11*
%TO.P,R102,2*%
%TO.N,Net-(C104-Pad1)*%
X104140000Y-92075000D03*
%TD*%
D21*
%TO.P,U101,1*%
%TO.N,GND*%
X63100000Y-121876000D03*
%TO.P,U101,2*%
%TO.N,VCC*%
X63100000Y-117926000D03*
%TO.P,U101,3*%
%TO.N,unconnected-(U101-Pad3)*%
X63100000Y-113976000D03*
%TO.P,U101,4*%
%TO.N,unconnected-(U101-Pad4)*%
X63100000Y-109976000D03*
%TO.P,U101,5*%
%TO.N,unconnected-(U101-Pad5)*%
X63100000Y-106026000D03*
%TO.P,U101,6*%
%TO.N,unconnected-(U101-Pad6)*%
X63100000Y-102076000D03*
%TO.P,U101,7*%
%TO.N,unconnected-(U101-Pad7)*%
X63100000Y-98076000D03*
%TO.P,U101,8*%
%TO.N,unconnected-(U101-Pad8)*%
X63100000Y-94126000D03*
%TO.P,U101,9*%
%TO.N,unconnected-(U101-Pad9)*%
X63100000Y-90176000D03*
%TO.P,U101,10*%
%TO.N,unconnected-(U101-Pad10)*%
X63100000Y-86226000D03*
%TO.P,U101,11*%
%TO.N,unconnected-(U101-Pad11)*%
X63100000Y-82276000D03*
%TO.P,U101,12*%
%TO.N,GND*%
X63100000Y-78276000D03*
%TD*%
D10*
%TO.P,C101,1*%
%TO.N,VCC*%
X78820000Y-77470000D03*
%TO.P,C101,2*%
%TO.N,GND*%
X83820000Y-77470000D03*
%TD*%
D19*
%TO.P,JP101,1,A*%
%TO.N,Net-(JP101-Pad1)*%
X118745000Y-92710000D03*
D20*
%TO.P,JP101,2,B*%
%TO.N,Net-(C106-Pad1)*%
X118745000Y-95250000D03*
%TD*%
D10*
%TO.P,C106,1*%
%TO.N,Net-(C106-Pad1)*%
X123190000Y-101640000D03*
%TO.P,C106,2*%
%TO.N,GNDA*%
X123190000Y-106640000D03*
%TD*%
%TO.P,C102,1*%
%TO.N,Net-(C102-Pad1)*%
X93980000Y-79930000D03*
%TO.P,C102,2*%
%TO.N,GND*%
X93980000Y-74930000D03*
%TD*%
D22*
%TO.P,Y101,1,1*%
%TO.N,Net-(C103-Pad1)*%
X97430000Y-83820000D03*
%TO.P,Y101,2,2*%
%TO.N,Net-(C102-Pad1)*%
X97430000Y-78920000D03*
D23*
%TO.P,Y101,3,3*%
%TO.N,GND*%
X106680000Y-75470000D03*
X106680000Y-87270000D03*
D24*
X106680000Y-81370000D03*
%TD*%
D10*
%TO.P,C104,1*%
%TO.N,Net-(C104-Pad1)*%
X94060000Y-92075000D03*
%TO.P,C104,2*%
%TO.N,GNDA*%
X99060000Y-92075000D03*
%TD*%
D12*
%TO.P,C105,1*%
%TO.N,VCC*%
X104140000Y-106680000D03*
D10*
%TO.P,C105,2*%
%TO.N,GNDA*%
X101640000Y-106680000D03*
%TD*%
%TO.P,LK101,1*%
%TO.N,GND*%
X81915000Y-124460000D03*
D11*
%TO.P,LK101,2*%
%TO.N,GNDA*%
X89535000Y-124460000D03*
%TD*%
D10*
%TO.P,C110,1*%
%TO.N,Net-(C110-Pad1)*%
X100330000Y-124460000D03*
%TO.P,C110,2*%
%TO.N,GNDA*%
X95330000Y-124460000D03*
%TD*%
%TO.P,R103,1*%
%TO.N,Net-(C104-Pad1)*%
X93980000Y-95250000D03*
D11*
%TO.P,R103,2*%
%TO.N,Net-(C106-Pad1)*%
X101600000Y-95250000D03*
%TD*%
D25*
%TO.N,PB4*%
X67017400Y-100076000D03*
X69645000Y-109269900D03*
%TD*%
D26*
%TO.N,Net-(C102-Pad1)*%
X96420000Y-79930000D02*
X97430000Y-78920000D01*
X93980000Y-79930000D02*
X96420000Y-79930000D01*
X92630000Y-81280000D02*
X93980000Y-79930000D01*
X88900000Y-81280000D02*
X92630000Y-81280000D01*
%TO.N,GNDA*%
X107707000Y-106640000D02*
X123190000Y-106640000D01*
X102840000Y-107880000D02*
X106467000Y-107880000D01*
X106467000Y-107880000D02*
X107707000Y-106640000D01*
X101640000Y-106680000D02*
X102840000Y-107880000D01*
%TO.N,Net-(C103-Pad1)*%
X88900000Y-83820000D02*
X92790000Y-83820000D01*
X93980000Y-82630000D02*
X96240000Y-82630000D01*
X92790000Y-83820000D02*
X93980000Y-82630000D01*
X96240000Y-82630000D02*
X97430000Y-83820000D01*
%TO.N,Net-(C104-Pad1)*%
X104140000Y-92075000D02*
X101600000Y-92075000D01*
X99463700Y-94211300D02*
X95018800Y-94211300D01*
X94060000Y-93252500D02*
X94060000Y-92075000D01*
X95018800Y-94211200D02*
X94060000Y-93252500D01*
X93980000Y-95250000D02*
X95018800Y-94211200D01*
X95018800Y-94211300D02*
X95018800Y-94211200D01*
X101600000Y-92075000D02*
X99463700Y-94211300D01*
%TO.N,Net-(C109-Pad1)*%
X114270000Y-109250000D02*
X115570000Y-107950000D01*
X95250000Y-113030000D02*
X99030400Y-109250000D01*
X99030400Y-109250000D02*
X114270000Y-109250000D01*
%TO.N,Net-(JP101-Pad1)*%
X118745000Y-92710000D02*
X112395000Y-92710000D01*
X112395000Y-92710000D02*
X111760000Y-92075000D01*
X89486100Y-90853900D02*
X88900000Y-91440000D01*
X110539000Y-90853900D02*
X89486100Y-90853900D01*
X111760000Y-92075000D02*
X110539000Y-90853900D01*
%TO.N,Net-(R101-Pad1)*%
X83820000Y-83820000D02*
X73660000Y-83820000D01*
X88900000Y-88900000D02*
X83820000Y-83820000D01*
%TO.N,Net-(C106-Pad1)*%
X101600000Y-95250000D02*
X118745000Y-95250000D01*
D27*
%TO.N,GND*%
X63100000Y-78276000D02*
X70656000Y-78276000D01*
X106680000Y-87270000D02*
X106680000Y-81370000D01*
X106680000Y-75470000D02*
X94520000Y-75470000D01*
X75216100Y-108236000D02*
X73660000Y-106680000D01*
X93980000Y-87630000D02*
X106320000Y-87630000D01*
X75216100Y-121876000D02*
X75216100Y-108236000D01*
X94520000Y-75470000D02*
X93980000Y-74930000D01*
X77800100Y-124460000D02*
X75216100Y-121876000D01*
X70656000Y-78276000D02*
X73660000Y-81280000D01*
X81915000Y-124460000D02*
X77800100Y-124460000D01*
X106680000Y-81370000D02*
X106680000Y-75470000D01*
X91440000Y-77470000D02*
X93980000Y-74930000D01*
X83820000Y-77470000D02*
X91440000Y-77470000D01*
X63100000Y-121876000D02*
X75216100Y-121876000D01*
X80010000Y-81280000D02*
X73660000Y-81280000D01*
X83820000Y-77470000D02*
X80010000Y-81280000D01*
X106320000Y-87630000D02*
X106680000Y-87270000D01*
D26*
%TO.N,PB4*%
X69645000Y-109269900D02*
X69645000Y-102703600D01*
X69645000Y-102703600D02*
X67017400Y-100076000D01*
%TO.N,Net-(U103-Pad3)*%
X127000000Y-115570000D02*
X125730000Y-116840000D01*
X96520000Y-116840000D02*
X95250000Y-118110000D01*
X125730000Y-116840000D02*
X96520000Y-116840000D01*
D28*
%TO.N,VCC*%
X75011400Y-95168600D02*
X75011400Y-93980000D01*
X75011400Y-93980000D02*
X87595600Y-93980000D01*
X64958000Y-117926000D02*
X71729100Y-111155000D01*
X88900000Y-104140000D02*
X87595600Y-102836000D01*
X75011400Y-87711400D02*
X73660000Y-86360000D01*
X105410000Y-118110000D02*
X107950000Y-120650000D01*
X128270000Y-101640000D02*
X125736000Y-104174000D01*
X125736000Y-104174000D02*
X106646000Y-104174000D01*
X101600000Y-104140000D02*
X88900000Y-104140000D01*
X102870000Y-118110000D02*
X105410000Y-118110000D01*
X71729100Y-111155000D02*
X71729100Y-98450900D01*
X104140000Y-106680000D02*
X101600000Y-104140000D01*
X106646000Y-104174000D02*
X104140000Y-106680000D01*
X75011400Y-93980000D02*
X75011400Y-87711400D01*
X87595600Y-93980000D02*
X88900000Y-93980000D01*
X63100000Y-117926000D02*
X64958000Y-117926000D01*
X71729100Y-98450900D02*
X73660000Y-96520000D01*
X87595600Y-102836000D02*
X87595600Y-93980000D01*
X73660000Y-96520000D02*
X75011400Y-95168600D01*
D26*
%TO.N,Net-(C107-Pad2)*%
X127000000Y-113070000D02*
X118110000Y-113070000D01*
X118110000Y-113070000D02*
X115570000Y-115610000D01*
%TO.N,Net-(C109-Pad2)*%
X105450000Y-110450000D02*
X115570000Y-110450000D01*
X102870000Y-113030000D02*
X105450000Y-110450000D01*
%TO.N,Net-(C112-Pad1)*%
X111125000Y-98425000D02*
X115570000Y-102870000D01*
X101600000Y-98425000D02*
X111125000Y-98425000D01*
%TO.N,Net-(C112-Pad2)*%
X115570000Y-100370000D02*
X122675000Y-93265000D01*
X122675000Y-93265000D02*
X122675000Y-86995000D01*
%TD*%
M02*
