%TF.GenerationSoftware,KiCad,Pcbnew,(6.0.4-0)*%
%TF.CreationDate,2022-07-12T12:37:45-04:00*%
%TF.ProjectId,vic1214,76696331-3231-4342-9e6b-696361645f70,rev?*%
%TF.SameCoordinates,Original*%
%TF.FileFunction,Legend,Top*%
%TF.FilePolarity,Positive*%
%FSLAX46Y46*%
G04 Gerber Fmt 4.6, Leading zero omitted, Abs format (unit mm)*
G04 Created by KiCad (PCBNEW (6.0.4-0)) date 2022-07-12 12:37:45*
%MOMM*%
%LPD*%
G01*
G04 APERTURE LIST*
%ADD10C,0.100000*%
%ADD11C,0.150000*%
%ADD12C,0.170000*%
%ADD13C,0.101600*%
%ADD14C,0.120000*%
G04 APERTURE END LIST*
D10*
G36*
X128270000Y-128270000D02*
G01*
X120650000Y-128270000D01*
X120650000Y-125730000D01*
X128270000Y-125730000D01*
X128270000Y-128270000D01*
G37*
X128270000Y-128270000D02*
X120650000Y-128270000D01*
X120650000Y-125730000D01*
X128270000Y-125730000D01*
X128270000Y-128270000D01*
X74061666Y-72801071D02*
X74037857Y-72824880D01*
X73966428Y-72848690D01*
X73918809Y-72848690D01*
X73847380Y-72824880D01*
X73799761Y-72777261D01*
X73775952Y-72729642D01*
X73752142Y-72634404D01*
X73752142Y-72562976D01*
X73775952Y-72467738D01*
X73799761Y-72420119D01*
X73847380Y-72372500D01*
X73918809Y-72348690D01*
X73966428Y-72348690D01*
X74037857Y-72372500D01*
X74061666Y-72396309D01*
X74347380Y-72848690D02*
X74299761Y-72824880D01*
X74275952Y-72801071D01*
X74252142Y-72753452D01*
X74252142Y-72610595D01*
X74275952Y-72562976D01*
X74299761Y-72539166D01*
X74347380Y-72515357D01*
X74418809Y-72515357D01*
X74466428Y-72539166D01*
X74490238Y-72562976D01*
X74514047Y-72610595D01*
X74514047Y-72753452D01*
X74490238Y-72801071D01*
X74466428Y-72824880D01*
X74418809Y-72848690D01*
X74347380Y-72848690D01*
X74728333Y-72515357D02*
X74728333Y-73015357D01*
X74728333Y-72539166D02*
X74775952Y-72515357D01*
X74871190Y-72515357D01*
X74918809Y-72539166D01*
X74942619Y-72562976D01*
X74966428Y-72610595D01*
X74966428Y-72753452D01*
X74942619Y-72801071D01*
X74918809Y-72824880D01*
X74871190Y-72848690D01*
X74775952Y-72848690D01*
X74728333Y-72824880D01*
X75133095Y-72515357D02*
X75252142Y-72848690D01*
X75371190Y-72515357D02*
X75252142Y-72848690D01*
X75204523Y-72967738D01*
X75180714Y-72991547D01*
X75133095Y-73015357D01*
X75561666Y-72848690D02*
X75561666Y-72515357D01*
X75561666Y-72610595D02*
X75585476Y-72562976D01*
X75609285Y-72539166D01*
X75656904Y-72515357D01*
X75704523Y-72515357D01*
X75871190Y-72848690D02*
X75871190Y-72515357D01*
X75871190Y-72348690D02*
X75847380Y-72372500D01*
X75871190Y-72396309D01*
X75895000Y-72372500D01*
X75871190Y-72348690D01*
X75871190Y-72396309D01*
X76323571Y-72515357D02*
X76323571Y-72920119D01*
X76299761Y-72967738D01*
X76275952Y-72991547D01*
X76228333Y-73015357D01*
X76156904Y-73015357D01*
X76109285Y-72991547D01*
X76323571Y-72824880D02*
X76275952Y-72848690D01*
X76180714Y-72848690D01*
X76133095Y-72824880D01*
X76109285Y-72801071D01*
X76085476Y-72753452D01*
X76085476Y-72610595D01*
X76109285Y-72562976D01*
X76133095Y-72539166D01*
X76180714Y-72515357D01*
X76275952Y-72515357D01*
X76323571Y-72539166D01*
X76561666Y-72848690D02*
X76561666Y-72348690D01*
X76775952Y-72848690D02*
X76775952Y-72586785D01*
X76752142Y-72539166D01*
X76704523Y-72515357D01*
X76633095Y-72515357D01*
X76585476Y-72539166D01*
X76561666Y-72562976D01*
X76942619Y-72515357D02*
X77133095Y-72515357D01*
X77014047Y-72348690D02*
X77014047Y-72777261D01*
X77037857Y-72824880D01*
X77085476Y-72848690D01*
X77133095Y-72848690D01*
X77823571Y-73039166D02*
X77799761Y-73015357D01*
X77752142Y-72943928D01*
X77728333Y-72896309D01*
X77704523Y-72824880D01*
X77680714Y-72705833D01*
X77680714Y-72610595D01*
X77704523Y-72491547D01*
X77728333Y-72420119D01*
X77752142Y-72372500D01*
X77799761Y-72301071D01*
X77823571Y-72277261D01*
X78228333Y-72824880D02*
X78180714Y-72848690D01*
X78085476Y-72848690D01*
X78037857Y-72824880D01*
X78014047Y-72801071D01*
X77990238Y-72753452D01*
X77990238Y-72610595D01*
X78014047Y-72562976D01*
X78037857Y-72539166D01*
X78085476Y-72515357D01*
X78180714Y-72515357D01*
X78228333Y-72539166D01*
X78395000Y-73039166D02*
X78418809Y-73015357D01*
X78466428Y-72943928D01*
X78490238Y-72896309D01*
X78514047Y-72824880D01*
X78537857Y-72705833D01*
X78537857Y-72610595D01*
X78514047Y-72491547D01*
X78490238Y-72420119D01*
X78466428Y-72372500D01*
X78418809Y-72301071D01*
X78395000Y-72277261D01*
X79133095Y-72396309D02*
X79156904Y-72372500D01*
X79204523Y-72348690D01*
X79323571Y-72348690D01*
X79371190Y-72372500D01*
X79395000Y-72396309D01*
X79418809Y-72443928D01*
X79418809Y-72491547D01*
X79395000Y-72562976D01*
X79109285Y-72848690D01*
X79418809Y-72848690D01*
X79728333Y-72348690D02*
X79775952Y-72348690D01*
X79823571Y-72372500D01*
X79847380Y-72396309D01*
X79871190Y-72443928D01*
X79895000Y-72539166D01*
X79895000Y-72658214D01*
X79871190Y-72753452D01*
X79847380Y-72801071D01*
X79823571Y-72824880D01*
X79775952Y-72848690D01*
X79728333Y-72848690D01*
X79680714Y-72824880D01*
X79656904Y-72801071D01*
X79633095Y-72753452D01*
X79609285Y-72658214D01*
X79609285Y-72539166D01*
X79633095Y-72443928D01*
X79656904Y-72396309D01*
X79680714Y-72372500D01*
X79728333Y-72348690D01*
X80085476Y-72396309D02*
X80109285Y-72372500D01*
X80156904Y-72348690D01*
X80275952Y-72348690D01*
X80323571Y-72372500D01*
X80347380Y-72396309D01*
X80371190Y-72443928D01*
X80371190Y-72491547D01*
X80347380Y-72562976D01*
X80061666Y-72848690D01*
X80371190Y-72848690D01*
X80561666Y-72396309D02*
X80585476Y-72372500D01*
X80633095Y-72348690D01*
X80752142Y-72348690D01*
X80799761Y-72372500D01*
X80823571Y-72396309D01*
X80847380Y-72443928D01*
X80847380Y-72491547D01*
X80823571Y-72562976D01*
X80537857Y-72848690D01*
X80847380Y-72848690D01*
X81728333Y-72848690D02*
X81561666Y-72610595D01*
X81442619Y-72848690D02*
X81442619Y-72348690D01*
X81633095Y-72348690D01*
X81680714Y-72372500D01*
X81704523Y-72396309D01*
X81728333Y-72443928D01*
X81728333Y-72515357D01*
X81704523Y-72562976D01*
X81680714Y-72586785D01*
X81633095Y-72610595D01*
X81442619Y-72610595D01*
X81942619Y-72848690D02*
X81942619Y-72515357D01*
X81942619Y-72348690D02*
X81918809Y-72372500D01*
X81942619Y-72396309D01*
X81966428Y-72372500D01*
X81942619Y-72348690D01*
X81942619Y-72396309D01*
X82395000Y-72824880D02*
X82347380Y-72848690D01*
X82252142Y-72848690D01*
X82204523Y-72824880D01*
X82180714Y-72801071D01*
X82156904Y-72753452D01*
X82156904Y-72610595D01*
X82180714Y-72562976D01*
X82204523Y-72539166D01*
X82252142Y-72515357D01*
X82347380Y-72515357D01*
X82395000Y-72539166D01*
X82609285Y-72848690D02*
X82609285Y-72348690D01*
X82823571Y-72848690D02*
X82823571Y-72586785D01*
X82799761Y-72539166D01*
X82752142Y-72515357D01*
X82680714Y-72515357D01*
X82633095Y-72539166D01*
X82609285Y-72562976D01*
X83275952Y-72848690D02*
X83275952Y-72586785D01*
X83252142Y-72539166D01*
X83204523Y-72515357D01*
X83109285Y-72515357D01*
X83061666Y-72539166D01*
X83275952Y-72824880D02*
X83228333Y-72848690D01*
X83109285Y-72848690D01*
X83061666Y-72824880D01*
X83037857Y-72777261D01*
X83037857Y-72729642D01*
X83061666Y-72682023D01*
X83109285Y-72658214D01*
X83228333Y-72658214D01*
X83275952Y-72634404D01*
X83514047Y-72848690D02*
X83514047Y-72515357D01*
X83514047Y-72610595D02*
X83537857Y-72562976D01*
X83561666Y-72539166D01*
X83609285Y-72515357D01*
X83656904Y-72515357D01*
X84037857Y-72848690D02*
X84037857Y-72348690D01*
X84037857Y-72824880D02*
X83990238Y-72848690D01*
X83895000Y-72848690D01*
X83847380Y-72824880D01*
X83823571Y-72801071D01*
X83799761Y-72753452D01*
X83799761Y-72610595D01*
X83823571Y-72562976D01*
X83847380Y-72539166D01*
X83895000Y-72515357D01*
X83990238Y-72515357D01*
X84037857Y-72539166D01*
X84633095Y-72705833D02*
X84871190Y-72705833D01*
X84585476Y-72848690D02*
X84752142Y-72348690D01*
X84918809Y-72848690D01*
X85085476Y-72801071D02*
X85109285Y-72824880D01*
X85085476Y-72848690D01*
X85061666Y-72824880D01*
X85085476Y-72801071D01*
X85085476Y-72848690D01*
X85990238Y-72801071D02*
X85966428Y-72824880D01*
X85895000Y-72848690D01*
X85847380Y-72848690D01*
X85775952Y-72824880D01*
X85728333Y-72777261D01*
X85704523Y-72729642D01*
X85680714Y-72634404D01*
X85680714Y-72562976D01*
X85704523Y-72467738D01*
X85728333Y-72420119D01*
X85775952Y-72372500D01*
X85847380Y-72348690D01*
X85895000Y-72348690D01*
X85966428Y-72372500D01*
X85990238Y-72396309D01*
X86204523Y-72848690D02*
X86204523Y-72515357D01*
X86204523Y-72348690D02*
X86180714Y-72372500D01*
X86204523Y-72396309D01*
X86228333Y-72372500D01*
X86204523Y-72348690D01*
X86204523Y-72396309D01*
X86442619Y-72515357D02*
X86442619Y-72848690D01*
X86442619Y-72562976D02*
X86466428Y-72539166D01*
X86514047Y-72515357D01*
X86585476Y-72515357D01*
X86633095Y-72539166D01*
X86656904Y-72586785D01*
X86656904Y-72848690D01*
X86895000Y-72848690D02*
X86895000Y-72515357D01*
X86895000Y-72348690D02*
X86871190Y-72372500D01*
X86895000Y-72396309D01*
X86918809Y-72372500D01*
X86895000Y-72348690D01*
X86895000Y-72396309D01*
X87133095Y-72801071D02*
X87156904Y-72824880D01*
X87133095Y-72848690D01*
X87109285Y-72824880D01*
X87133095Y-72801071D01*
X87133095Y-72848690D01*
X70740238Y-73510833D02*
X70978333Y-73510833D01*
X70692619Y-73653690D02*
X70859285Y-73153690D01*
X71025952Y-73653690D01*
X71264047Y-73653690D02*
X71216428Y-73629880D01*
X71192619Y-73582261D01*
X71192619Y-73153690D01*
X71525952Y-73653690D02*
X71478333Y-73629880D01*
X71454523Y-73582261D01*
X71454523Y-73153690D01*
X72383095Y-73653690D02*
X72216428Y-73415595D01*
X72097380Y-73653690D02*
X72097380Y-73153690D01*
X72287857Y-73153690D01*
X72335476Y-73177500D01*
X72359285Y-73201309D01*
X72383095Y-73248928D01*
X72383095Y-73320357D01*
X72359285Y-73367976D01*
X72335476Y-73391785D01*
X72287857Y-73415595D01*
X72097380Y-73415595D01*
X72597380Y-73653690D02*
X72597380Y-73320357D01*
X72597380Y-73153690D02*
X72573571Y-73177500D01*
X72597380Y-73201309D01*
X72621190Y-73177500D01*
X72597380Y-73153690D01*
X72597380Y-73201309D01*
X73049761Y-73320357D02*
X73049761Y-73725119D01*
X73025952Y-73772738D01*
X73002142Y-73796547D01*
X72954523Y-73820357D01*
X72883095Y-73820357D01*
X72835476Y-73796547D01*
X73049761Y-73629880D02*
X73002142Y-73653690D01*
X72906904Y-73653690D01*
X72859285Y-73629880D01*
X72835476Y-73606071D01*
X72811666Y-73558452D01*
X72811666Y-73415595D01*
X72835476Y-73367976D01*
X72859285Y-73344166D01*
X72906904Y-73320357D01*
X73002142Y-73320357D01*
X73049761Y-73344166D01*
X73287857Y-73653690D02*
X73287857Y-73153690D01*
X73502142Y-73653690D02*
X73502142Y-73391785D01*
X73478333Y-73344166D01*
X73430714Y-73320357D01*
X73359285Y-73320357D01*
X73311666Y-73344166D01*
X73287857Y-73367976D01*
X73668809Y-73320357D02*
X73859285Y-73320357D01*
X73740238Y-73153690D02*
X73740238Y-73582261D01*
X73764047Y-73629880D01*
X73811666Y-73653690D01*
X73859285Y-73653690D01*
X74002142Y-73629880D02*
X74049761Y-73653690D01*
X74145000Y-73653690D01*
X74192619Y-73629880D01*
X74216428Y-73582261D01*
X74216428Y-73558452D01*
X74192619Y-73510833D01*
X74145000Y-73487023D01*
X74073571Y-73487023D01*
X74025952Y-73463214D01*
X74002142Y-73415595D01*
X74002142Y-73391785D01*
X74025952Y-73344166D01*
X74073571Y-73320357D01*
X74145000Y-73320357D01*
X74192619Y-73344166D01*
X75097380Y-73653690D02*
X74930714Y-73415595D01*
X74811666Y-73653690D02*
X74811666Y-73153690D01*
X75002142Y-73153690D01*
X75049761Y-73177500D01*
X75073571Y-73201309D01*
X75097380Y-73248928D01*
X75097380Y-73320357D01*
X75073571Y-73367976D01*
X75049761Y-73391785D01*
X75002142Y-73415595D01*
X74811666Y-73415595D01*
X75502142Y-73629880D02*
X75454523Y-73653690D01*
X75359285Y-73653690D01*
X75311666Y-73629880D01*
X75287857Y-73582261D01*
X75287857Y-73391785D01*
X75311666Y-73344166D01*
X75359285Y-73320357D01*
X75454523Y-73320357D01*
X75502142Y-73344166D01*
X75525952Y-73391785D01*
X75525952Y-73439404D01*
X75287857Y-73487023D01*
X75716428Y-73629880D02*
X75764047Y-73653690D01*
X75859285Y-73653690D01*
X75906904Y-73629880D01*
X75930714Y-73582261D01*
X75930714Y-73558452D01*
X75906904Y-73510833D01*
X75859285Y-73487023D01*
X75787857Y-73487023D01*
X75740238Y-73463214D01*
X75716428Y-73415595D01*
X75716428Y-73391785D01*
X75740238Y-73344166D01*
X75787857Y-73320357D01*
X75859285Y-73320357D01*
X75906904Y-73344166D01*
X76335476Y-73629880D02*
X76287857Y-73653690D01*
X76192619Y-73653690D01*
X76145000Y-73629880D01*
X76121190Y-73582261D01*
X76121190Y-73391785D01*
X76145000Y-73344166D01*
X76192619Y-73320357D01*
X76287857Y-73320357D01*
X76335476Y-73344166D01*
X76359285Y-73391785D01*
X76359285Y-73439404D01*
X76121190Y-73487023D01*
X76573571Y-73653690D02*
X76573571Y-73320357D01*
X76573571Y-73415595D02*
X76597380Y-73367976D01*
X76621190Y-73344166D01*
X76668809Y-73320357D01*
X76716428Y-73320357D01*
X76835476Y-73320357D02*
X76954523Y-73653690D01*
X77073571Y-73320357D01*
X77454523Y-73629880D02*
X77406904Y-73653690D01*
X77311666Y-73653690D01*
X77264047Y-73629880D01*
X77240238Y-73582261D01*
X77240238Y-73391785D01*
X77264047Y-73344166D01*
X77311666Y-73320357D01*
X77406904Y-73320357D01*
X77454523Y-73344166D01*
X77478333Y-73391785D01*
X77478333Y-73439404D01*
X77240238Y-73487023D01*
X77906904Y-73653690D02*
X77906904Y-73153690D01*
X77906904Y-73629880D02*
X77859285Y-73653690D01*
X77764047Y-73653690D01*
X77716428Y-73629880D01*
X77692619Y-73606071D01*
X77668809Y-73558452D01*
X77668809Y-73415595D01*
X77692619Y-73367976D01*
X77716428Y-73344166D01*
X77764047Y-73320357D01*
X77859285Y-73320357D01*
X77906904Y-73344166D01*
X78145000Y-73606071D02*
X78168809Y-73629880D01*
X78145000Y-73653690D01*
X78121190Y-73629880D01*
X78145000Y-73606071D01*
X78145000Y-73653690D01*
X79002142Y-73653690D02*
X78764047Y-73653690D01*
X78764047Y-73153690D01*
X79168809Y-73653690D02*
X79168809Y-73320357D01*
X79168809Y-73153690D02*
X79145000Y-73177500D01*
X79168809Y-73201309D01*
X79192619Y-73177500D01*
X79168809Y-73153690D01*
X79168809Y-73201309D01*
X79621190Y-73629880D02*
X79573571Y-73653690D01*
X79478333Y-73653690D01*
X79430714Y-73629880D01*
X79406904Y-73606071D01*
X79383095Y-73558452D01*
X79383095Y-73415595D01*
X79406904Y-73367976D01*
X79430714Y-73344166D01*
X79478333Y-73320357D01*
X79573571Y-73320357D01*
X79621190Y-73344166D01*
X80025952Y-73629880D02*
X79978333Y-73653690D01*
X79883095Y-73653690D01*
X79835476Y-73629880D01*
X79811666Y-73582261D01*
X79811666Y-73391785D01*
X79835476Y-73344166D01*
X79883095Y-73320357D01*
X79978333Y-73320357D01*
X80025952Y-73344166D01*
X80049761Y-73391785D01*
X80049761Y-73439404D01*
X79811666Y-73487023D01*
X80264047Y-73320357D02*
X80264047Y-73653690D01*
X80264047Y-73367976D02*
X80287857Y-73344166D01*
X80335476Y-73320357D01*
X80406904Y-73320357D01*
X80454523Y-73344166D01*
X80478333Y-73391785D01*
X80478333Y-73653690D01*
X80692619Y-73629880D02*
X80740238Y-73653690D01*
X80835476Y-73653690D01*
X80883095Y-73629880D01*
X80906904Y-73582261D01*
X80906904Y-73558452D01*
X80883095Y-73510833D01*
X80835476Y-73487023D01*
X80764047Y-73487023D01*
X80716428Y-73463214D01*
X80692619Y-73415595D01*
X80692619Y-73391785D01*
X80716428Y-73344166D01*
X80764047Y-73320357D01*
X80835476Y-73320357D01*
X80883095Y-73344166D01*
X81311666Y-73629880D02*
X81264047Y-73653690D01*
X81168809Y-73653690D01*
X81121190Y-73629880D01*
X81097380Y-73582261D01*
X81097380Y-73391785D01*
X81121190Y-73344166D01*
X81168809Y-73320357D01*
X81264047Y-73320357D01*
X81311666Y-73344166D01*
X81335476Y-73391785D01*
X81335476Y-73439404D01*
X81097380Y-73487023D01*
X81764047Y-73653690D02*
X81764047Y-73153690D01*
X81764047Y-73629880D02*
X81716428Y-73653690D01*
X81621190Y-73653690D01*
X81573571Y-73629880D01*
X81549761Y-73606071D01*
X81525952Y-73558452D01*
X81525952Y-73415595D01*
X81549761Y-73367976D01*
X81573571Y-73344166D01*
X81621190Y-73320357D01*
X81716428Y-73320357D01*
X81764047Y-73344166D01*
X82311666Y-73320357D02*
X82502142Y-73320357D01*
X82383095Y-73653690D02*
X82383095Y-73225119D01*
X82406904Y-73177500D01*
X82454523Y-73153690D01*
X82502142Y-73153690D01*
X82740238Y-73653690D02*
X82692619Y-73629880D01*
X82668809Y-73606071D01*
X82645000Y-73558452D01*
X82645000Y-73415595D01*
X82668809Y-73367976D01*
X82692619Y-73344166D01*
X82740238Y-73320357D01*
X82811666Y-73320357D01*
X82859285Y-73344166D01*
X82883095Y-73367976D01*
X82906904Y-73415595D01*
X82906904Y-73558452D01*
X82883095Y-73606071D01*
X82859285Y-73629880D01*
X82811666Y-73653690D01*
X82740238Y-73653690D01*
X83121190Y-73653690D02*
X83121190Y-73320357D01*
X83121190Y-73415595D02*
X83145000Y-73367976D01*
X83168809Y-73344166D01*
X83216428Y-73320357D01*
X83264047Y-73320357D01*
X83811666Y-73653690D02*
X83811666Y-73153690D01*
X84025952Y-73653690D02*
X84025952Y-73391785D01*
X84002142Y-73344166D01*
X83954523Y-73320357D01*
X83883095Y-73320357D01*
X83835476Y-73344166D01*
X83811666Y-73367976D01*
X84335476Y-73653690D02*
X84287857Y-73629880D01*
X84264047Y-73606071D01*
X84240238Y-73558452D01*
X84240238Y-73415595D01*
X84264047Y-73367976D01*
X84287857Y-73344166D01*
X84335476Y-73320357D01*
X84406904Y-73320357D01*
X84454523Y-73344166D01*
X84478333Y-73367976D01*
X84502142Y-73415595D01*
X84502142Y-73558452D01*
X84478333Y-73606071D01*
X84454523Y-73629880D01*
X84406904Y-73653690D01*
X84335476Y-73653690D01*
X84716428Y-73653690D02*
X84716428Y-73153690D01*
X84716428Y-73344166D02*
X84764047Y-73320357D01*
X84859285Y-73320357D01*
X84906904Y-73344166D01*
X84930714Y-73367976D01*
X84954523Y-73415595D01*
X84954523Y-73558452D01*
X84930714Y-73606071D01*
X84906904Y-73629880D01*
X84859285Y-73653690D01*
X84764047Y-73653690D01*
X84716428Y-73629880D01*
X85168809Y-73653690D02*
X85168809Y-73153690D01*
X85168809Y-73344166D02*
X85216428Y-73320357D01*
X85311666Y-73320357D01*
X85359285Y-73344166D01*
X85383095Y-73367976D01*
X85406904Y-73415595D01*
X85406904Y-73558452D01*
X85383095Y-73606071D01*
X85359285Y-73629880D01*
X85311666Y-73653690D01*
X85216428Y-73653690D01*
X85168809Y-73629880D01*
X85573571Y-73320357D02*
X85692619Y-73653690D01*
X85811666Y-73320357D02*
X85692619Y-73653690D01*
X85645000Y-73772738D01*
X85621190Y-73796547D01*
X85573571Y-73820357D01*
X86002142Y-73653690D02*
X86002142Y-73320357D01*
X86002142Y-73153690D02*
X85978333Y-73177500D01*
X86002142Y-73201309D01*
X86025952Y-73177500D01*
X86002142Y-73153690D01*
X86002142Y-73201309D01*
X86216428Y-73629880D02*
X86264047Y-73653690D01*
X86359285Y-73653690D01*
X86406904Y-73629880D01*
X86430714Y-73582261D01*
X86430714Y-73558452D01*
X86406904Y-73510833D01*
X86359285Y-73487023D01*
X86287857Y-73487023D01*
X86240238Y-73463214D01*
X86216428Y-73415595D01*
X86216428Y-73391785D01*
X86240238Y-73344166D01*
X86287857Y-73320357D01*
X86359285Y-73320357D01*
X86406904Y-73344166D01*
X86573571Y-73320357D02*
X86764047Y-73320357D01*
X86645000Y-73153690D02*
X86645000Y-73582261D01*
X86668809Y-73629880D01*
X86716428Y-73653690D01*
X86764047Y-73653690D01*
X87525952Y-73320357D02*
X87525952Y-73653690D01*
X87311666Y-73320357D02*
X87311666Y-73582261D01*
X87335476Y-73629880D01*
X87383095Y-73653690D01*
X87454523Y-73653690D01*
X87502142Y-73629880D01*
X87525952Y-73606071D01*
X87740238Y-73629880D02*
X87787857Y-73653690D01*
X87883095Y-73653690D01*
X87930714Y-73629880D01*
X87954523Y-73582261D01*
X87954523Y-73558452D01*
X87930714Y-73510833D01*
X87883095Y-73487023D01*
X87811666Y-73487023D01*
X87764047Y-73463214D01*
X87740238Y-73415595D01*
X87740238Y-73391785D01*
X87764047Y-73344166D01*
X87811666Y-73320357D01*
X87883095Y-73320357D01*
X87930714Y-73344166D01*
X88359285Y-73629880D02*
X88311666Y-73653690D01*
X88216428Y-73653690D01*
X88168809Y-73629880D01*
X88145000Y-73582261D01*
X88145000Y-73391785D01*
X88168809Y-73344166D01*
X88216428Y-73320357D01*
X88311666Y-73320357D01*
X88359285Y-73344166D01*
X88383095Y-73391785D01*
X88383095Y-73439404D01*
X88145000Y-73487023D01*
X89049761Y-73653690D02*
X89002142Y-73629880D01*
X88978333Y-73606071D01*
X88954523Y-73558452D01*
X88954523Y-73415595D01*
X88978333Y-73367976D01*
X89002142Y-73344166D01*
X89049761Y-73320357D01*
X89121190Y-73320357D01*
X89168809Y-73344166D01*
X89192619Y-73367976D01*
X89216428Y-73415595D01*
X89216428Y-73558452D01*
X89192619Y-73606071D01*
X89168809Y-73629880D01*
X89121190Y-73653690D01*
X89049761Y-73653690D01*
X89430714Y-73320357D02*
X89430714Y-73653690D01*
X89430714Y-73367976D02*
X89454523Y-73344166D01*
X89502142Y-73320357D01*
X89573571Y-73320357D01*
X89621190Y-73344166D01*
X89644999Y-73391785D01*
X89644999Y-73653690D01*
X89954523Y-73653690D02*
X89906904Y-73629880D01*
X89883095Y-73582261D01*
X89883095Y-73153690D01*
X90097380Y-73320357D02*
X90216428Y-73653690D01*
X90335476Y-73320357D02*
X90216428Y-73653690D01*
X90168809Y-73772738D01*
X90144999Y-73796547D01*
X90097380Y-73820357D01*
X90525952Y-73606071D02*
X90549761Y-73629880D01*
X90525952Y-73653690D01*
X90502142Y-73629880D01*
X90525952Y-73606071D01*
X90525952Y-73653690D01*
D11*
X103474285Y-127087380D02*
X103807619Y-128087380D01*
X104140952Y-127087380D01*
X104474285Y-128087380D02*
X104474285Y-127087380D01*
X105521904Y-127992142D02*
X105474285Y-128039761D01*
X105331428Y-128087380D01*
X105236190Y-128087380D01*
X105093333Y-128039761D01*
X104998095Y-127944523D01*
X104950476Y-127849285D01*
X104902857Y-127658809D01*
X104902857Y-127515952D01*
X104950476Y-127325476D01*
X104998095Y-127230238D01*
X105093333Y-127135000D01*
X105236190Y-127087380D01*
X105331428Y-127087380D01*
X105474285Y-127135000D01*
X105521904Y-127182619D01*
X105950476Y-127706428D02*
X106712380Y-127706428D01*
X107712380Y-128087380D02*
X107140952Y-128087380D01*
X107426666Y-128087380D02*
X107426666Y-127087380D01*
X107331428Y-127230238D01*
X107236190Y-127325476D01*
X107140952Y-127373095D01*
X108093333Y-127182619D02*
X108140952Y-127135000D01*
X108236190Y-127087380D01*
X108474285Y-127087380D01*
X108569523Y-127135000D01*
X108617142Y-127182619D01*
X108664761Y-127277857D01*
X108664761Y-127373095D01*
X108617142Y-127515952D01*
X108045714Y-128087380D01*
X108664761Y-128087380D01*
X109617142Y-128087380D02*
X109045714Y-128087380D01*
X109331428Y-128087380D02*
X109331428Y-127087380D01*
X109236190Y-127230238D01*
X109140952Y-127325476D01*
X109045714Y-127373095D01*
X110474285Y-127420714D02*
X110474285Y-128087380D01*
X110236190Y-127039761D02*
X109998095Y-127754047D01*
X110617142Y-127754047D01*
X111569523Y-128087380D02*
X111236190Y-127611190D01*
X110998095Y-128087380D02*
X110998095Y-127087380D01*
X111379047Y-127087380D01*
X111474285Y-127135000D01*
X111521904Y-127182619D01*
X111569523Y-127277857D01*
X111569523Y-127420714D01*
X111521904Y-127515952D01*
X111474285Y-127563571D01*
X111379047Y-127611190D01*
X110998095Y-127611190D01*
X112950476Y-127087380D02*
X113045714Y-127087380D01*
X113140952Y-127135000D01*
X113188571Y-127182619D01*
X113236190Y-127277857D01*
X113283809Y-127468333D01*
X113283809Y-127706428D01*
X113236190Y-127896904D01*
X113188571Y-127992142D01*
X113140952Y-128039761D01*
X113045714Y-128087380D01*
X112950476Y-128087380D01*
X112855238Y-128039761D01*
X112807619Y-127992142D01*
X112760000Y-127896904D01*
X112712380Y-127706428D01*
X112712380Y-127468333D01*
X112760000Y-127277857D01*
X112807619Y-127182619D01*
X112855238Y-127135000D01*
X112950476Y-127087380D01*
X113617142Y-127087380D02*
X114283809Y-127087380D01*
X113855238Y-128087380D01*
X114855238Y-127087380D02*
X114950476Y-127087380D01*
X115045714Y-127135000D01*
X115093333Y-127182619D01*
X115140952Y-127277857D01*
X115188571Y-127468333D01*
X115188571Y-127706428D01*
X115140952Y-127896904D01*
X115093333Y-127992142D01*
X115045714Y-128039761D01*
X114950476Y-128087380D01*
X114855238Y-128087380D01*
X114759999Y-128039761D01*
X114712380Y-127992142D01*
X114664761Y-127896904D01*
X114617142Y-127706428D01*
X114617142Y-127468333D01*
X114664761Y-127277857D01*
X114712380Y-127182619D01*
X114759999Y-127135000D01*
X114855238Y-127087380D01*
X115521904Y-127087380D02*
X116188571Y-127087380D01*
X115759999Y-128087380D01*
X116521904Y-127182619D02*
X116569523Y-127135000D01*
X116664761Y-127087380D01*
X116902857Y-127087380D01*
X116998095Y-127135000D01*
X117045714Y-127182619D01*
X117093333Y-127277857D01*
X117093333Y-127373095D01*
X117045714Y-127515952D01*
X116474285Y-128087380D01*
X117093333Y-128087380D01*
X117712380Y-127087380D02*
X117807619Y-127087380D01*
X117902857Y-127135000D01*
X117950476Y-127182619D01*
X117998095Y-127277857D01*
X118045714Y-127468333D01*
X118045714Y-127706428D01*
X117998095Y-127896904D01*
X117950476Y-127992142D01*
X117902857Y-128039761D01*
X117807619Y-128087380D01*
X117712380Y-128087380D01*
X117617142Y-128039761D01*
X117569523Y-127992142D01*
X117521904Y-127896904D01*
X117474285Y-127706428D01*
X117474285Y-127468333D01*
X117521904Y-127277857D01*
X117569523Y-127182619D01*
X117617142Y-127135000D01*
X117712380Y-127087380D01*
X118426666Y-127182619D02*
X118474285Y-127135000D01*
X118569523Y-127087380D01*
X118807619Y-127087380D01*
X118902857Y-127135000D01*
X118950476Y-127182619D01*
X118998095Y-127277857D01*
X118998095Y-127373095D01*
X118950476Y-127515952D01*
X118379047Y-128087380D01*
X118998095Y-128087380D01*
X119379047Y-127182619D02*
X119426666Y-127135000D01*
X119521904Y-127087380D01*
X119759999Y-127087380D01*
X119855238Y-127135000D01*
X119902857Y-127182619D01*
X119950476Y-127277857D01*
X119950476Y-127373095D01*
X119902857Y-127515952D01*
X119331428Y-128087380D01*
X119950476Y-128087380D01*
D12*
X131094171Y-92091095D02*
X131094171Y-92853000D01*
X131094171Y-94853000D02*
X131094171Y-95614904D01*
X130713219Y-95233952D02*
X131475123Y-95233952D01*
D11*
X83804285Y-128420761D02*
X83947142Y-128468380D01*
X84185238Y-128468380D01*
X84280476Y-128420761D01*
X84328095Y-128373142D01*
X84375714Y-128277904D01*
X84375714Y-128182666D01*
X84328095Y-128087428D01*
X84280476Y-128039809D01*
X84185238Y-127992190D01*
X83994761Y-127944571D01*
X83899523Y-127896952D01*
X83851904Y-127849333D01*
X83804285Y-127754095D01*
X83804285Y-127658857D01*
X83851904Y-127563619D01*
X83899523Y-127516000D01*
X83994761Y-127468380D01*
X84232857Y-127468380D01*
X84375714Y-127516000D01*
X84804285Y-128468380D02*
X84804285Y-127468380D01*
X85185238Y-127468380D01*
X85280476Y-127516000D01*
X85328095Y-127563619D01*
X85375714Y-127658857D01*
X85375714Y-127801714D01*
X85328095Y-127896952D01*
X85280476Y-127944571D01*
X85185238Y-127992190D01*
X84804285Y-127992190D01*
X86328095Y-127516000D02*
X86232857Y-127468380D01*
X86090000Y-127468380D01*
X85947142Y-127516000D01*
X85851904Y-127611238D01*
X85804285Y-127706476D01*
X85756666Y-127896952D01*
X85756666Y-128039809D01*
X85804285Y-128230285D01*
X85851904Y-128325523D01*
X85947142Y-128420761D01*
X86090000Y-128468380D01*
X86185238Y-128468380D01*
X86328095Y-128420761D01*
X86375714Y-128373142D01*
X86375714Y-128039809D01*
X86185238Y-128039809D01*
%TO.C,C108*%
X119692142Y-103989047D02*
X119739761Y-104036666D01*
X119787380Y-104179523D01*
X119787380Y-104274761D01*
X119739761Y-104417619D01*
X119644523Y-104512857D01*
X119549285Y-104560476D01*
X119358809Y-104608095D01*
X119215952Y-104608095D01*
X119025476Y-104560476D01*
X118930238Y-104512857D01*
X118835000Y-104417619D01*
X118787380Y-104274761D01*
X118787380Y-104179523D01*
X118835000Y-104036666D01*
X118882619Y-103989047D01*
X119787380Y-103036666D02*
X119787380Y-103608095D01*
X119787380Y-103322380D02*
X118787380Y-103322380D01*
X118930238Y-103417619D01*
X119025476Y-103512857D01*
X119073095Y-103608095D01*
X118787380Y-102417619D02*
X118787380Y-102322380D01*
X118835000Y-102227142D01*
X118882619Y-102179523D01*
X118977857Y-102131904D01*
X119168333Y-102084285D01*
X119406428Y-102084285D01*
X119596904Y-102131904D01*
X119692142Y-102179523D01*
X119739761Y-102227142D01*
X119787380Y-102322380D01*
X119787380Y-102417619D01*
X119739761Y-102512857D01*
X119692142Y-102560476D01*
X119596904Y-102608095D01*
X119406428Y-102655714D01*
X119168333Y-102655714D01*
X118977857Y-102608095D01*
X118882619Y-102560476D01*
X118835000Y-102512857D01*
X118787380Y-102417619D01*
X119215952Y-101512857D02*
X119168333Y-101608095D01*
X119120714Y-101655714D01*
X119025476Y-101703333D01*
X118977857Y-101703333D01*
X118882619Y-101655714D01*
X118835000Y-101608095D01*
X118787380Y-101512857D01*
X118787380Y-101322380D01*
X118835000Y-101227142D01*
X118882619Y-101179523D01*
X118977857Y-101131904D01*
X119025476Y-101131904D01*
X119120714Y-101179523D01*
X119168333Y-101227142D01*
X119215952Y-101322380D01*
X119215952Y-101512857D01*
X119263571Y-101608095D01*
X119311190Y-101655714D01*
X119406428Y-101703333D01*
X119596904Y-101703333D01*
X119692142Y-101655714D01*
X119739761Y-101608095D01*
X119787380Y-101512857D01*
X119787380Y-101322380D01*
X119739761Y-101227142D01*
X119692142Y-101179523D01*
X119596904Y-101131904D01*
X119406428Y-101131904D01*
X119311190Y-101179523D01*
X119263571Y-101227142D01*
X119215952Y-101322380D01*
X110987380Y-103961428D02*
X110987380Y-104532857D01*
X110987380Y-104247142D02*
X109987380Y-104247142D01*
X110130238Y-104342380D01*
X110225476Y-104437619D01*
X110273095Y-104532857D01*
X109987380Y-103342380D02*
X109987380Y-103247142D01*
X110035000Y-103151904D01*
X110082619Y-103104285D01*
X110177857Y-103056666D01*
X110368333Y-103009047D01*
X110606428Y-103009047D01*
X110796904Y-103056666D01*
X110892142Y-103104285D01*
X110939761Y-103151904D01*
X110987380Y-103247142D01*
X110987380Y-103342380D01*
X110939761Y-103437619D01*
X110892142Y-103485238D01*
X110796904Y-103532857D01*
X110606428Y-103580476D01*
X110368333Y-103580476D01*
X110177857Y-103532857D01*
X110082619Y-103485238D01*
X110035000Y-103437619D01*
X109987380Y-103342380D01*
X110320714Y-102151904D02*
X110987380Y-102151904D01*
X110320714Y-102580476D02*
X110844523Y-102580476D01*
X110939761Y-102532857D01*
X110987380Y-102437619D01*
X110987380Y-102294761D01*
X110939761Y-102199523D01*
X110892142Y-102151904D01*
X110463571Y-101342380D02*
X110463571Y-101675714D01*
X110987380Y-101675714D02*
X109987380Y-101675714D01*
X109987380Y-101199523D01*
%TO.C,C111*%
X105177142Y-124329047D02*
X105224761Y-124376666D01*
X105272380Y-124519523D01*
X105272380Y-124614761D01*
X105224761Y-124757619D01*
X105129523Y-124852857D01*
X105034285Y-124900476D01*
X104843809Y-124948095D01*
X104700952Y-124948095D01*
X104510476Y-124900476D01*
X104415238Y-124852857D01*
X104320000Y-124757619D01*
X104272380Y-124614761D01*
X104272380Y-124519523D01*
X104320000Y-124376666D01*
X104367619Y-124329047D01*
X105272380Y-123376666D02*
X105272380Y-123948095D01*
X105272380Y-123662380D02*
X104272380Y-123662380D01*
X104415238Y-123757619D01*
X104510476Y-123852857D01*
X104558095Y-123948095D01*
X105272380Y-122424285D02*
X105272380Y-122995714D01*
X105272380Y-122710000D02*
X104272380Y-122710000D01*
X104415238Y-122805238D01*
X104510476Y-122900476D01*
X104558095Y-122995714D01*
X105272380Y-121471904D02*
X105272380Y-122043333D01*
X105272380Y-121757619D02*
X104272380Y-121757619D01*
X104415238Y-121852857D01*
X104510476Y-121948095D01*
X104558095Y-122043333D01*
X107672380Y-119832380D02*
X107100952Y-119832380D01*
X107386666Y-119832380D02*
X107386666Y-118832380D01*
X107291428Y-118975238D01*
X107196190Y-119070476D01*
X107100952Y-119118095D01*
X108291428Y-118832380D02*
X108386666Y-118832380D01*
X108481904Y-118880000D01*
X108529523Y-118927619D01*
X108577142Y-119022857D01*
X108624761Y-119213333D01*
X108624761Y-119451428D01*
X108577142Y-119641904D01*
X108529523Y-119737142D01*
X108481904Y-119784761D01*
X108386666Y-119832380D01*
X108291428Y-119832380D01*
X108196190Y-119784761D01*
X108148571Y-119737142D01*
X108100952Y-119641904D01*
X108053333Y-119451428D01*
X108053333Y-119213333D01*
X108100952Y-119022857D01*
X108148571Y-118927619D01*
X108196190Y-118880000D01*
X108291428Y-118832380D01*
X109243809Y-118832380D02*
X109339047Y-118832380D01*
X109434285Y-118880000D01*
X109481904Y-118927619D01*
X109529523Y-119022857D01*
X109577142Y-119213333D01*
X109577142Y-119451428D01*
X109529523Y-119641904D01*
X109481904Y-119737142D01*
X109434285Y-119784761D01*
X109339047Y-119832380D01*
X109243809Y-119832380D01*
X109148571Y-119784761D01*
X109100952Y-119737142D01*
X109053333Y-119641904D01*
X109005714Y-119451428D01*
X109005714Y-119213333D01*
X109053333Y-119022857D01*
X109100952Y-118927619D01*
X109148571Y-118880000D01*
X109243809Y-118832380D01*
X110434285Y-119165714D02*
X110434285Y-119832380D01*
X110005714Y-119165714D02*
X110005714Y-119689523D01*
X110053333Y-119784761D01*
X110148571Y-119832380D01*
X110291428Y-119832380D01*
X110386666Y-119784761D01*
X110434285Y-119737142D01*
X111243809Y-119308571D02*
X110910476Y-119308571D01*
X110910476Y-119832380D02*
X110910476Y-118832380D01*
X111386666Y-118832380D01*
%TO.C,R104*%
X109370952Y-83002380D02*
X109037619Y-82526190D01*
X108799523Y-83002380D02*
X108799523Y-82002380D01*
X109180476Y-82002380D01*
X109275714Y-82050000D01*
X109323333Y-82097619D01*
X109370952Y-82192857D01*
X109370952Y-82335714D01*
X109323333Y-82430952D01*
X109275714Y-82478571D01*
X109180476Y-82526190D01*
X108799523Y-82526190D01*
X110323333Y-83002380D02*
X109751904Y-83002380D01*
X110037619Y-83002380D02*
X110037619Y-82002380D01*
X109942380Y-82145238D01*
X109847142Y-82240476D01*
X109751904Y-82288095D01*
X110942380Y-82002380D02*
X111037619Y-82002380D01*
X111132857Y-82050000D01*
X111180476Y-82097619D01*
X111228095Y-82192857D01*
X111275714Y-82383333D01*
X111275714Y-82621428D01*
X111228095Y-82811904D01*
X111180476Y-82907142D01*
X111132857Y-82954761D01*
X111037619Y-83002380D01*
X110942380Y-83002380D01*
X110847142Y-82954761D01*
X110799523Y-82907142D01*
X110751904Y-82811904D01*
X110704285Y-82621428D01*
X110704285Y-82383333D01*
X110751904Y-82192857D01*
X110799523Y-82097619D01*
X110847142Y-82050000D01*
X110942380Y-82002380D01*
X112132857Y-82335714D02*
X112132857Y-83002380D01*
X111894761Y-81954761D02*
X111656666Y-82669047D01*
X112275714Y-82669047D01*
X109799523Y-85542380D02*
X109228095Y-85542380D01*
X109513809Y-85542380D02*
X109513809Y-84542380D01*
X109418571Y-84685238D01*
X109323333Y-84780476D01*
X109228095Y-84828095D01*
X110418571Y-84542380D02*
X110513809Y-84542380D01*
X110609047Y-84590000D01*
X110656666Y-84637619D01*
X110704285Y-84732857D01*
X110751904Y-84923333D01*
X110751904Y-85161428D01*
X110704285Y-85351904D01*
X110656666Y-85447142D01*
X110609047Y-85494761D01*
X110513809Y-85542380D01*
X110418571Y-85542380D01*
X110323333Y-85494761D01*
X110275714Y-85447142D01*
X110228095Y-85351904D01*
X110180476Y-85161428D01*
X110180476Y-84923333D01*
X110228095Y-84732857D01*
X110275714Y-84637619D01*
X110323333Y-84590000D01*
X110418571Y-84542380D01*
X111180476Y-85542380D02*
X111180476Y-84542380D01*
X111751904Y-85542380D02*
X111323333Y-84970952D01*
X111751904Y-84542380D02*
X111180476Y-85113809D01*
%TO.C,U102*%
X79438714Y-118832380D02*
X79438714Y-119641904D01*
X79486333Y-119737142D01*
X79533952Y-119784761D01*
X79629190Y-119832380D01*
X79819666Y-119832380D01*
X79914904Y-119784761D01*
X79962523Y-119737142D01*
X80010142Y-119641904D01*
X80010142Y-118832380D01*
X81010142Y-119832380D02*
X80438714Y-119832380D01*
X80724428Y-119832380D02*
X80724428Y-118832380D01*
X80629190Y-118975238D01*
X80533952Y-119070476D01*
X80438714Y-119118095D01*
X81629190Y-118832380D02*
X81724428Y-118832380D01*
X81819666Y-118880000D01*
X81867285Y-118927619D01*
X81914904Y-119022857D01*
X81962523Y-119213333D01*
X81962523Y-119451428D01*
X81914904Y-119641904D01*
X81867285Y-119737142D01*
X81819666Y-119784761D01*
X81724428Y-119832380D01*
X81629190Y-119832380D01*
X81533952Y-119784761D01*
X81486333Y-119737142D01*
X81438714Y-119641904D01*
X81391095Y-119451428D01*
X81391095Y-119213333D01*
X81438714Y-119022857D01*
X81486333Y-118927619D01*
X81533952Y-118880000D01*
X81629190Y-118832380D01*
X82343476Y-118927619D02*
X82391095Y-118880000D01*
X82486333Y-118832380D01*
X82724428Y-118832380D01*
X82819666Y-118880000D01*
X82867285Y-118927619D01*
X82914904Y-119022857D01*
X82914904Y-119118095D01*
X82867285Y-119260952D01*
X82295857Y-119832380D01*
X82914904Y-119832380D01*
X81811761Y-113966047D02*
X81859380Y-113823190D01*
X81859380Y-113585095D01*
X81811761Y-113489857D01*
X81764142Y-113442238D01*
X81668904Y-113394619D01*
X81573666Y-113394619D01*
X81478428Y-113442238D01*
X81430809Y-113489857D01*
X81383190Y-113585095D01*
X81335571Y-113775571D01*
X81287952Y-113870809D01*
X81240333Y-113918428D01*
X81145095Y-113966047D01*
X81049857Y-113966047D01*
X80954619Y-113918428D01*
X80907000Y-113870809D01*
X80859380Y-113775571D01*
X80859380Y-113537476D01*
X80907000Y-113394619D01*
X81859380Y-112966047D02*
X80859380Y-112966047D01*
X80859380Y-112585095D01*
X80907000Y-112489857D01*
X80954619Y-112442238D01*
X81049857Y-112394619D01*
X81192714Y-112394619D01*
X81287952Y-112442238D01*
X81335571Y-112489857D01*
X81383190Y-112585095D01*
X81383190Y-112966047D01*
X80859380Y-111775571D02*
X80859380Y-111680333D01*
X80907000Y-111585095D01*
X80954619Y-111537476D01*
X81049857Y-111489857D01*
X81240333Y-111442238D01*
X81478428Y-111442238D01*
X81668904Y-111489857D01*
X81764142Y-111537476D01*
X81811761Y-111585095D01*
X81859380Y-111680333D01*
X81859380Y-111775571D01*
X81811761Y-111870809D01*
X81764142Y-111918428D01*
X81668904Y-111966047D01*
X81478428Y-112013666D01*
X81240333Y-112013666D01*
X81049857Y-111966047D01*
X80954619Y-111918428D01*
X80907000Y-111870809D01*
X80859380Y-111775571D01*
X80954619Y-111061285D02*
X80907000Y-111013666D01*
X80859380Y-110918428D01*
X80859380Y-110680333D01*
X80907000Y-110585095D01*
X80954619Y-110537476D01*
X81049857Y-110489857D01*
X81145095Y-110489857D01*
X81287952Y-110537476D01*
X81859380Y-111108904D01*
X81859380Y-110489857D01*
X80859380Y-109585095D02*
X80859380Y-110061285D01*
X81335571Y-110108904D01*
X81287952Y-110061285D01*
X81240333Y-109966047D01*
X81240333Y-109727952D01*
X81287952Y-109632714D01*
X81335571Y-109585095D01*
X81430809Y-109537476D01*
X81668904Y-109537476D01*
X81764142Y-109585095D01*
X81811761Y-109632714D01*
X81859380Y-109727952D01*
X81859380Y-109966047D01*
X81811761Y-110061285D01*
X81764142Y-110108904D01*
X80859380Y-108680333D02*
X80859380Y-108870809D01*
X80907000Y-108966047D01*
X80954619Y-109013666D01*
X81097476Y-109108904D01*
X81287952Y-109156523D01*
X81668904Y-109156523D01*
X81764142Y-109108904D01*
X81811761Y-109061285D01*
X81859380Y-108966047D01*
X81859380Y-108775571D01*
X81811761Y-108680333D01*
X81764142Y-108632714D01*
X81668904Y-108585095D01*
X81430809Y-108585095D01*
X81335571Y-108632714D01*
X81287952Y-108680333D01*
X81240333Y-108775571D01*
X81240333Y-108966047D01*
X81287952Y-109061285D01*
X81335571Y-109108904D01*
X81430809Y-109156523D01*
X81478428Y-108156523D02*
X81478428Y-107394619D01*
X81573666Y-106966047D02*
X81573666Y-106489857D01*
X81859380Y-107061285D02*
X80859380Y-106727952D01*
X81859380Y-106394619D01*
X81859380Y-105585095D02*
X81859380Y-106061285D01*
X80859380Y-106061285D01*
X80954619Y-105299380D02*
X80907000Y-105251761D01*
X80859380Y-105156523D01*
X80859380Y-104918428D01*
X80907000Y-104823190D01*
X80954619Y-104775571D01*
X81049857Y-104727952D01*
X81145095Y-104727952D01*
X81287952Y-104775571D01*
X81859380Y-105347000D01*
X81859380Y-104727952D01*
%TO.C,R101*%
X110772380Y-114149047D02*
X110296190Y-114482380D01*
X110772380Y-114720476D02*
X109772380Y-114720476D01*
X109772380Y-114339523D01*
X109820000Y-114244285D01*
X109867619Y-114196666D01*
X109962857Y-114149047D01*
X110105714Y-114149047D01*
X110200952Y-114196666D01*
X110248571Y-114244285D01*
X110296190Y-114339523D01*
X110296190Y-114720476D01*
X110772380Y-113196666D02*
X110772380Y-113768095D01*
X110772380Y-113482380D02*
X109772380Y-113482380D01*
X109915238Y-113577619D01*
X110010476Y-113672857D01*
X110058095Y-113768095D01*
X109772380Y-112577619D02*
X109772380Y-112482380D01*
X109820000Y-112387142D01*
X109867619Y-112339523D01*
X109962857Y-112291904D01*
X110153333Y-112244285D01*
X110391428Y-112244285D01*
X110581904Y-112291904D01*
X110677142Y-112339523D01*
X110724761Y-112387142D01*
X110772380Y-112482380D01*
X110772380Y-112577619D01*
X110724761Y-112672857D01*
X110677142Y-112720476D01*
X110581904Y-112768095D01*
X110391428Y-112815714D01*
X110153333Y-112815714D01*
X109962857Y-112768095D01*
X109867619Y-112720476D01*
X109820000Y-112672857D01*
X109772380Y-112577619D01*
X110772380Y-111291904D02*
X110772380Y-111863333D01*
X110772380Y-111577619D02*
X109772380Y-111577619D01*
X109915238Y-111672857D01*
X110010476Y-111768095D01*
X110058095Y-111863333D01*
X108402380Y-114196666D02*
X108402380Y-114768095D01*
X108402380Y-114482380D02*
X107402380Y-114482380D01*
X107545238Y-114577619D01*
X107640476Y-114672857D01*
X107688095Y-114768095D01*
X107402380Y-113577619D02*
X107402380Y-113482380D01*
X107450000Y-113387142D01*
X107497619Y-113339523D01*
X107592857Y-113291904D01*
X107783333Y-113244285D01*
X108021428Y-113244285D01*
X108211904Y-113291904D01*
X108307142Y-113339523D01*
X108354761Y-113387142D01*
X108402380Y-113482380D01*
X108402380Y-113577619D01*
X108354761Y-113672857D01*
X108307142Y-113720476D01*
X108211904Y-113768095D01*
X108021428Y-113815714D01*
X107783333Y-113815714D01*
X107592857Y-113768095D01*
X107497619Y-113720476D01*
X107450000Y-113672857D01*
X107402380Y-113577619D01*
X107402380Y-112625238D02*
X107402380Y-112530000D01*
X107450000Y-112434761D01*
X107497619Y-112387142D01*
X107592857Y-112339523D01*
X107783333Y-112291904D01*
X108021428Y-112291904D01*
X108211904Y-112339523D01*
X108307142Y-112387142D01*
X108354761Y-112434761D01*
X108402380Y-112530000D01*
X108402380Y-112625238D01*
X108354761Y-112720476D01*
X108307142Y-112768095D01*
X108211904Y-112815714D01*
X108021428Y-112863333D01*
X107783333Y-112863333D01*
X107592857Y-112815714D01*
X107497619Y-112768095D01*
X107450000Y-112720476D01*
X107402380Y-112625238D01*
X108402380Y-111863333D02*
X107402380Y-111863333D01*
X108402380Y-111291904D02*
X107830952Y-111720476D01*
X107402380Y-111291904D02*
X107973809Y-111863333D01*
%TO.C,J101*%
X128610285Y-73774880D02*
X128610285Y-74489166D01*
X128562666Y-74632023D01*
X128467428Y-74727261D01*
X128324571Y-74774880D01*
X128229333Y-74774880D01*
X129610285Y-74774880D02*
X129038857Y-74774880D01*
X129324571Y-74774880D02*
X129324571Y-73774880D01*
X129229333Y-73917738D01*
X129134095Y-74012976D01*
X129038857Y-74060595D01*
X130229333Y-73774880D02*
X130324571Y-73774880D01*
X130419809Y-73822500D01*
X130467428Y-73870119D01*
X130515047Y-73965357D01*
X130562666Y-74155833D01*
X130562666Y-74393928D01*
X130515047Y-74584404D01*
X130467428Y-74679642D01*
X130419809Y-74727261D01*
X130324571Y-74774880D01*
X130229333Y-74774880D01*
X130134095Y-74727261D01*
X130086476Y-74679642D01*
X130038857Y-74584404D01*
X129991238Y-74393928D01*
X129991238Y-74155833D01*
X130038857Y-73965357D01*
X130086476Y-73870119D01*
X130134095Y-73822500D01*
X130229333Y-73774880D01*
X131515047Y-74774880D02*
X130943619Y-74774880D01*
X131229333Y-74774880D02*
X131229333Y-73774880D01*
X131134095Y-73917738D01*
X131038857Y-74012976D01*
X130943619Y-74060595D01*
%TO.C,C109*%
X119381542Y-114098247D02*
X119429161Y-114145866D01*
X119476780Y-114288723D01*
X119476780Y-114383961D01*
X119429161Y-114526819D01*
X119333923Y-114622057D01*
X119238685Y-114669676D01*
X119048209Y-114717295D01*
X118905352Y-114717295D01*
X118714876Y-114669676D01*
X118619638Y-114622057D01*
X118524400Y-114526819D01*
X118476780Y-114383961D01*
X118476780Y-114288723D01*
X118524400Y-114145866D01*
X118572019Y-114098247D01*
X119476780Y-113145866D02*
X119476780Y-113717295D01*
X119476780Y-113431580D02*
X118476780Y-113431580D01*
X118619638Y-113526819D01*
X118714876Y-113622057D01*
X118762495Y-113717295D01*
X118476780Y-112526819D02*
X118476780Y-112431580D01*
X118524400Y-112336342D01*
X118572019Y-112288723D01*
X118667257Y-112241104D01*
X118857733Y-112193485D01*
X119095828Y-112193485D01*
X119286304Y-112241104D01*
X119381542Y-112288723D01*
X119429161Y-112336342D01*
X119476780Y-112431580D01*
X119476780Y-112526819D01*
X119429161Y-112622057D01*
X119381542Y-112669676D01*
X119286304Y-112717295D01*
X119095828Y-112764914D01*
X118857733Y-112764914D01*
X118667257Y-112717295D01*
X118572019Y-112669676D01*
X118524400Y-112622057D01*
X118476780Y-112526819D01*
X119476780Y-111717295D02*
X119476780Y-111526819D01*
X119429161Y-111431580D01*
X119381542Y-111383961D01*
X119238685Y-111288723D01*
X119048209Y-111241104D01*
X118667257Y-111241104D01*
X118572019Y-111288723D01*
X118524400Y-111336342D01*
X118476780Y-111431580D01*
X118476780Y-111622057D01*
X118524400Y-111717295D01*
X118572019Y-111764914D01*
X118667257Y-111812533D01*
X118905352Y-111812533D01*
X119000590Y-111764914D01*
X119048209Y-111717295D01*
X119095828Y-111622057D01*
X119095828Y-111431580D01*
X119048209Y-111336342D01*
X119000590Y-111288723D01*
X118905352Y-111241104D01*
X116292380Y-114284285D02*
X116292380Y-114189047D01*
X116340000Y-114093809D01*
X116387619Y-114046190D01*
X116482857Y-113998571D01*
X116673333Y-113950952D01*
X116911428Y-113950952D01*
X117101904Y-113998571D01*
X117197142Y-114046190D01*
X117244761Y-114093809D01*
X117292380Y-114189047D01*
X117292380Y-114284285D01*
X117244761Y-114379523D01*
X117197142Y-114427142D01*
X117101904Y-114474761D01*
X116911428Y-114522380D01*
X116673333Y-114522380D01*
X116482857Y-114474761D01*
X116387619Y-114427142D01*
X116340000Y-114379523D01*
X116292380Y-114284285D01*
X117197142Y-113522380D02*
X117244761Y-113474761D01*
X117292380Y-113522380D01*
X117244761Y-113570000D01*
X117197142Y-113522380D01*
X117292380Y-113522380D01*
X117292380Y-112522380D02*
X117292380Y-113093809D01*
X117292380Y-112808095D02*
X116292380Y-112808095D01*
X116435238Y-112903333D01*
X116530476Y-112998571D01*
X116578095Y-113093809D01*
X116625714Y-111665238D02*
X117292380Y-111665238D01*
X116625714Y-112093809D02*
X117149523Y-112093809D01*
X117244761Y-112046190D01*
X117292380Y-111950952D01*
X117292380Y-111808095D01*
X117244761Y-111712857D01*
X117197142Y-111665238D01*
%TO.C,U103*%
X97345714Y-106342380D02*
X97345714Y-107151904D01*
X97393333Y-107247142D01*
X97440952Y-107294761D01*
X97536190Y-107342380D01*
X97726666Y-107342380D01*
X97821904Y-107294761D01*
X97869523Y-107247142D01*
X97917142Y-107151904D01*
X97917142Y-106342380D01*
X98917142Y-107342380D02*
X98345714Y-107342380D01*
X98631428Y-107342380D02*
X98631428Y-106342380D01*
X98536190Y-106485238D01*
X98440952Y-106580476D01*
X98345714Y-106628095D01*
X99536190Y-106342380D02*
X99631428Y-106342380D01*
X99726666Y-106390000D01*
X99774285Y-106437619D01*
X99821904Y-106532857D01*
X99869523Y-106723333D01*
X99869523Y-106961428D01*
X99821904Y-107151904D01*
X99774285Y-107247142D01*
X99726666Y-107294761D01*
X99631428Y-107342380D01*
X99536190Y-107342380D01*
X99440952Y-107294761D01*
X99393333Y-107247142D01*
X99345714Y-107151904D01*
X99298095Y-106961428D01*
X99298095Y-106723333D01*
X99345714Y-106532857D01*
X99393333Y-106437619D01*
X99440952Y-106390000D01*
X99536190Y-106342380D01*
X100202857Y-106342380D02*
X100821904Y-106342380D01*
X100488571Y-106723333D01*
X100631428Y-106723333D01*
X100726666Y-106770952D01*
X100774285Y-106818571D01*
X100821904Y-106913809D01*
X100821904Y-107151904D01*
X100774285Y-107247142D01*
X100726666Y-107294761D01*
X100631428Y-107342380D01*
X100345714Y-107342380D01*
X100250476Y-107294761D01*
X100202857Y-107247142D01*
X99512380Y-114720476D02*
X99512380Y-115196666D01*
X98512380Y-115196666D01*
X99512380Y-114387142D02*
X98512380Y-114387142D01*
X99226666Y-114053809D01*
X98512380Y-113720476D01*
X99512380Y-113720476D01*
X98512380Y-113339523D02*
X98512380Y-112720476D01*
X98893333Y-113053809D01*
X98893333Y-112910952D01*
X98940952Y-112815714D01*
X98988571Y-112768095D01*
X99083809Y-112720476D01*
X99321904Y-112720476D01*
X99417142Y-112768095D01*
X99464761Y-112815714D01*
X99512380Y-112910952D01*
X99512380Y-113196666D01*
X99464761Y-113291904D01*
X99417142Y-113339523D01*
X98940952Y-112149047D02*
X98893333Y-112244285D01*
X98845714Y-112291904D01*
X98750476Y-112339523D01*
X98702857Y-112339523D01*
X98607619Y-112291904D01*
X98560000Y-112244285D01*
X98512380Y-112149047D01*
X98512380Y-111958571D01*
X98560000Y-111863333D01*
X98607619Y-111815714D01*
X98702857Y-111768095D01*
X98750476Y-111768095D01*
X98845714Y-111815714D01*
X98893333Y-111863333D01*
X98940952Y-111958571D01*
X98940952Y-112149047D01*
X98988571Y-112244285D01*
X99036190Y-112291904D01*
X99131428Y-112339523D01*
X99321904Y-112339523D01*
X99417142Y-112291904D01*
X99464761Y-112244285D01*
X99512380Y-112149047D01*
X99512380Y-111958571D01*
X99464761Y-111863333D01*
X99417142Y-111815714D01*
X99321904Y-111768095D01*
X99131428Y-111768095D01*
X99036190Y-111815714D01*
X98988571Y-111863333D01*
X98940952Y-111958571D01*
X98512380Y-110910952D02*
X98512380Y-111101428D01*
X98560000Y-111196666D01*
X98607619Y-111244285D01*
X98750476Y-111339523D01*
X98940952Y-111387142D01*
X99321904Y-111387142D01*
X99417142Y-111339523D01*
X99464761Y-111291904D01*
X99512380Y-111196666D01*
X99512380Y-111006190D01*
X99464761Y-110910952D01*
X99417142Y-110863333D01*
X99321904Y-110815714D01*
X99083809Y-110815714D01*
X98988571Y-110863333D01*
X98940952Y-110910952D01*
X98893333Y-111006190D01*
X98893333Y-111196666D01*
X98940952Y-111291904D01*
X98988571Y-111339523D01*
X99083809Y-111387142D01*
%TO.C,X101*%
X104692380Y-81771904D02*
X105692380Y-81105238D01*
X104692380Y-81105238D02*
X105692380Y-81771904D01*
X105692380Y-80200476D02*
X105692380Y-80771904D01*
X105692380Y-80486190D02*
X104692380Y-80486190D01*
X104835238Y-80581428D01*
X104930476Y-80676666D01*
X104978095Y-80771904D01*
X104692380Y-79581428D02*
X104692380Y-79486190D01*
X104740000Y-79390952D01*
X104787619Y-79343333D01*
X104882857Y-79295714D01*
X105073333Y-79248095D01*
X105311428Y-79248095D01*
X105501904Y-79295714D01*
X105597142Y-79343333D01*
X105644761Y-79390952D01*
X105692380Y-79486190D01*
X105692380Y-79581428D01*
X105644761Y-79676666D01*
X105597142Y-79724285D01*
X105501904Y-79771904D01*
X105311428Y-79819523D01*
X105073333Y-79819523D01*
X104882857Y-79771904D01*
X104787619Y-79724285D01*
X104740000Y-79676666D01*
X104692380Y-79581428D01*
X105692380Y-78295714D02*
X105692380Y-78867142D01*
X105692380Y-78581428D02*
X104692380Y-78581428D01*
X104835238Y-78676666D01*
X104930476Y-78771904D01*
X104978095Y-78867142D01*
X96036190Y-79087380D02*
X96655238Y-79087380D01*
X96321904Y-79468333D01*
X96464761Y-79468333D01*
X96560000Y-79515952D01*
X96607619Y-79563571D01*
X96655238Y-79658809D01*
X96655238Y-79896904D01*
X96607619Y-79992142D01*
X96560000Y-80039761D01*
X96464761Y-80087380D01*
X96179047Y-80087380D01*
X96083809Y-80039761D01*
X96036190Y-79992142D01*
X97083809Y-79992142D02*
X97131428Y-80039761D01*
X97083809Y-80087380D01*
X97036190Y-80039761D01*
X97083809Y-79992142D01*
X97083809Y-80087380D01*
X98083809Y-80087380D02*
X97512380Y-80087380D01*
X97798095Y-80087380D02*
X97798095Y-79087380D01*
X97702857Y-79230238D01*
X97607619Y-79325476D01*
X97512380Y-79373095D01*
X98464761Y-79182619D02*
X98512380Y-79135000D01*
X98607619Y-79087380D01*
X98845714Y-79087380D01*
X98940952Y-79135000D01*
X98988571Y-79182619D01*
X99036190Y-79277857D01*
X99036190Y-79373095D01*
X98988571Y-79515952D01*
X98417142Y-80087380D01*
X99036190Y-80087380D01*
X99464761Y-80087380D02*
X99464761Y-79087380D01*
X99798095Y-79801666D01*
X100131428Y-79087380D01*
X100131428Y-80087380D01*
X100607619Y-80087380D02*
X100607619Y-79087380D01*
X100607619Y-79563571D02*
X101179047Y-79563571D01*
X101179047Y-80087380D02*
X101179047Y-79087380D01*
X101560000Y-79420714D02*
X102083809Y-79420714D01*
X101560000Y-80087380D01*
X102083809Y-80087380D01*
%TO.C,R105*%
X104290952Y-97607380D02*
X103957619Y-97131190D01*
X103719523Y-97607380D02*
X103719523Y-96607380D01*
X104100476Y-96607380D01*
X104195714Y-96655000D01*
X104243333Y-96702619D01*
X104290952Y-96797857D01*
X104290952Y-96940714D01*
X104243333Y-97035952D01*
X104195714Y-97083571D01*
X104100476Y-97131190D01*
X103719523Y-97131190D01*
X105243333Y-97607380D02*
X104671904Y-97607380D01*
X104957619Y-97607380D02*
X104957619Y-96607380D01*
X104862380Y-96750238D01*
X104767142Y-96845476D01*
X104671904Y-96893095D01*
X105862380Y-96607380D02*
X105957619Y-96607380D01*
X106052857Y-96655000D01*
X106100476Y-96702619D01*
X106148095Y-96797857D01*
X106195714Y-96988333D01*
X106195714Y-97226428D01*
X106148095Y-97416904D01*
X106100476Y-97512142D01*
X106052857Y-97559761D01*
X105957619Y-97607380D01*
X105862380Y-97607380D01*
X105767142Y-97559761D01*
X105719523Y-97512142D01*
X105671904Y-97416904D01*
X105624285Y-97226428D01*
X105624285Y-96988333D01*
X105671904Y-96797857D01*
X105719523Y-96702619D01*
X105767142Y-96655000D01*
X105862380Y-96607380D01*
X107100476Y-96607380D02*
X106624285Y-96607380D01*
X106576666Y-97083571D01*
X106624285Y-97035952D01*
X106719523Y-96988333D01*
X106957619Y-96988333D01*
X107052857Y-97035952D01*
X107100476Y-97083571D01*
X107148095Y-97178809D01*
X107148095Y-97416904D01*
X107100476Y-97512142D01*
X107052857Y-97559761D01*
X106957619Y-97607380D01*
X106719523Y-97607380D01*
X106624285Y-97559761D01*
X106576666Y-97512142D01*
X96480476Y-96607380D02*
X97099523Y-96607380D01*
X96766190Y-96988333D01*
X96909047Y-96988333D01*
X97004285Y-97035952D01*
X97051904Y-97083571D01*
X97099523Y-97178809D01*
X97099523Y-97416904D01*
X97051904Y-97512142D01*
X97004285Y-97559761D01*
X96909047Y-97607380D01*
X96623333Y-97607380D01*
X96528095Y-97559761D01*
X96480476Y-97512142D01*
X97432857Y-96607380D02*
X98051904Y-96607380D01*
X97718571Y-96988333D01*
X97861428Y-96988333D01*
X97956666Y-97035952D01*
X98004285Y-97083571D01*
X98051904Y-97178809D01*
X98051904Y-97416904D01*
X98004285Y-97512142D01*
X97956666Y-97559761D01*
X97861428Y-97607380D01*
X97575714Y-97607380D01*
X97480476Y-97559761D01*
X97432857Y-97512142D01*
X98480476Y-97607380D02*
X98480476Y-96607380D01*
X99051904Y-97607380D02*
X98623333Y-97035952D01*
X99051904Y-96607380D02*
X98480476Y-97178809D01*
%TO.C,VR101*%
X125373095Y-122602380D02*
X125706428Y-123602380D01*
X126039761Y-122602380D01*
X126944523Y-123602380D02*
X126611190Y-123126190D01*
X126373095Y-123602380D02*
X126373095Y-122602380D01*
X126754047Y-122602380D01*
X126849285Y-122650000D01*
X126896904Y-122697619D01*
X126944523Y-122792857D01*
X126944523Y-122935714D01*
X126896904Y-123030952D01*
X126849285Y-123078571D01*
X126754047Y-123126190D01*
X126373095Y-123126190D01*
X127896904Y-123602380D02*
X127325476Y-123602380D01*
X127611190Y-123602380D02*
X127611190Y-122602380D01*
X127515952Y-122745238D01*
X127420714Y-122840476D01*
X127325476Y-122888095D01*
X128515952Y-122602380D02*
X128611190Y-122602380D01*
X128706428Y-122650000D01*
X128754047Y-122697619D01*
X128801666Y-122792857D01*
X128849285Y-122983333D01*
X128849285Y-123221428D01*
X128801666Y-123411904D01*
X128754047Y-123507142D01*
X128706428Y-123554761D01*
X128611190Y-123602380D01*
X128515952Y-123602380D01*
X128420714Y-123554761D01*
X128373095Y-123507142D01*
X128325476Y-123411904D01*
X128277857Y-123221428D01*
X128277857Y-122983333D01*
X128325476Y-122792857D01*
X128373095Y-122697619D01*
X128420714Y-122650000D01*
X128515952Y-122602380D01*
X129801666Y-123602380D02*
X129230238Y-123602380D01*
X129515952Y-123602380D02*
X129515952Y-122602380D01*
X129420714Y-122745238D01*
X129325476Y-122840476D01*
X129230238Y-122888095D01*
X126944523Y-124872380D02*
X126373095Y-124872380D01*
X126658809Y-124872380D02*
X126658809Y-123872380D01*
X126563571Y-124015238D01*
X126468333Y-124110476D01*
X126373095Y-124158095D01*
X127563571Y-123872380D02*
X127658809Y-123872380D01*
X127754047Y-123920000D01*
X127801666Y-123967619D01*
X127849285Y-124062857D01*
X127896904Y-124253333D01*
X127896904Y-124491428D01*
X127849285Y-124681904D01*
X127801666Y-124777142D01*
X127754047Y-124824761D01*
X127658809Y-124872380D01*
X127563571Y-124872380D01*
X127468333Y-124824761D01*
X127420714Y-124777142D01*
X127373095Y-124681904D01*
X127325476Y-124491428D01*
X127325476Y-124253333D01*
X127373095Y-124062857D01*
X127420714Y-123967619D01*
X127468333Y-123920000D01*
X127563571Y-123872380D01*
X128325476Y-124872380D02*
X128325476Y-123872380D01*
X128896904Y-124872380D02*
X128468333Y-124300952D01*
X128896904Y-123872380D02*
X128325476Y-124443809D01*
%TO.C,C103*%
X108140952Y-88027142D02*
X108093333Y-88074761D01*
X107950476Y-88122380D01*
X107855238Y-88122380D01*
X107712380Y-88074761D01*
X107617142Y-87979523D01*
X107569523Y-87884285D01*
X107521904Y-87693809D01*
X107521904Y-87550952D01*
X107569523Y-87360476D01*
X107617142Y-87265238D01*
X107712380Y-87170000D01*
X107855238Y-87122380D01*
X107950476Y-87122380D01*
X108093333Y-87170000D01*
X108140952Y-87217619D01*
X109093333Y-88122380D02*
X108521904Y-88122380D01*
X108807619Y-88122380D02*
X108807619Y-87122380D01*
X108712380Y-87265238D01*
X108617142Y-87360476D01*
X108521904Y-87408095D01*
X109712380Y-87122380D02*
X109807619Y-87122380D01*
X109902857Y-87170000D01*
X109950476Y-87217619D01*
X109998095Y-87312857D01*
X110045714Y-87503333D01*
X110045714Y-87741428D01*
X109998095Y-87931904D01*
X109950476Y-88027142D01*
X109902857Y-88074761D01*
X109807619Y-88122380D01*
X109712380Y-88122380D01*
X109617142Y-88074761D01*
X109569523Y-88027142D01*
X109521904Y-87931904D01*
X109474285Y-87741428D01*
X109474285Y-87503333D01*
X109521904Y-87312857D01*
X109569523Y-87217619D01*
X109617142Y-87170000D01*
X109712380Y-87122380D01*
X110379047Y-87122380D02*
X110998095Y-87122380D01*
X110664761Y-87503333D01*
X110807619Y-87503333D01*
X110902857Y-87550952D01*
X110950476Y-87598571D01*
X110998095Y-87693809D01*
X110998095Y-87931904D01*
X110950476Y-88027142D01*
X110902857Y-88074761D01*
X110807619Y-88122380D01*
X110521904Y-88122380D01*
X110426666Y-88074761D01*
X110379047Y-88027142D01*
X108521904Y-89955714D02*
X108521904Y-90622380D01*
X108283809Y-89574761D02*
X108045714Y-90289047D01*
X108664761Y-90289047D01*
X108950476Y-89622380D02*
X109617142Y-89622380D01*
X109188571Y-90622380D01*
X109998095Y-89955714D02*
X109998095Y-90955714D01*
X109998095Y-90003333D02*
X110093333Y-89955714D01*
X110283809Y-89955714D01*
X110379047Y-90003333D01*
X110426666Y-90050952D01*
X110474285Y-90146190D01*
X110474285Y-90431904D01*
X110426666Y-90527142D01*
X110379047Y-90574761D01*
X110283809Y-90622380D01*
X110093333Y-90622380D01*
X109998095Y-90574761D01*
%TO.C,C107*%
X113387142Y-120499047D02*
X113434761Y-120546666D01*
X113482380Y-120689523D01*
X113482380Y-120784761D01*
X113434761Y-120927619D01*
X113339523Y-121022857D01*
X113244285Y-121070476D01*
X113053809Y-121118095D01*
X112910952Y-121118095D01*
X112720476Y-121070476D01*
X112625238Y-121022857D01*
X112530000Y-120927619D01*
X112482380Y-120784761D01*
X112482380Y-120689523D01*
X112530000Y-120546666D01*
X112577619Y-120499047D01*
X113482380Y-119546666D02*
X113482380Y-120118095D01*
X113482380Y-119832380D02*
X112482380Y-119832380D01*
X112625238Y-119927619D01*
X112720476Y-120022857D01*
X112768095Y-120118095D01*
X112482380Y-118927619D02*
X112482380Y-118832380D01*
X112530000Y-118737142D01*
X112577619Y-118689523D01*
X112672857Y-118641904D01*
X112863333Y-118594285D01*
X113101428Y-118594285D01*
X113291904Y-118641904D01*
X113387142Y-118689523D01*
X113434761Y-118737142D01*
X113482380Y-118832380D01*
X113482380Y-118927619D01*
X113434761Y-119022857D01*
X113387142Y-119070476D01*
X113291904Y-119118095D01*
X113101428Y-119165714D01*
X112863333Y-119165714D01*
X112672857Y-119118095D01*
X112577619Y-119070476D01*
X112530000Y-119022857D01*
X112482380Y-118927619D01*
X112482380Y-118260952D02*
X112482380Y-117594285D01*
X113482380Y-118022857D01*
X112482380Y-114204285D02*
X112482380Y-114109047D01*
X112530000Y-114013809D01*
X112577619Y-113966190D01*
X112672857Y-113918571D01*
X112863333Y-113870952D01*
X113101428Y-113870952D01*
X113291904Y-113918571D01*
X113387142Y-113966190D01*
X113434761Y-114013809D01*
X113482380Y-114109047D01*
X113482380Y-114204285D01*
X113434761Y-114299523D01*
X113387142Y-114347142D01*
X113291904Y-114394761D01*
X113101428Y-114442380D01*
X112863333Y-114442380D01*
X112672857Y-114394761D01*
X112577619Y-114347142D01*
X112530000Y-114299523D01*
X112482380Y-114204285D01*
X113387142Y-113442380D02*
X113434761Y-113394761D01*
X113482380Y-113442380D01*
X113434761Y-113490000D01*
X113387142Y-113442380D01*
X113482380Y-113442380D01*
X113482380Y-112442380D02*
X113482380Y-113013809D01*
X113482380Y-112728095D02*
X112482380Y-112728095D01*
X112625238Y-112823333D01*
X112720476Y-112918571D01*
X112768095Y-113013809D01*
X112815714Y-111585238D02*
X113482380Y-111585238D01*
X112815714Y-112013809D02*
X113339523Y-112013809D01*
X113434761Y-111966190D01*
X113482380Y-111870952D01*
X113482380Y-111728095D01*
X113434761Y-111632857D01*
X113387142Y-111585238D01*
%TO.C,LS101*%
X127309761Y-98032380D02*
X126833571Y-98032380D01*
X126833571Y-97032380D01*
X127595476Y-97984761D02*
X127738333Y-98032380D01*
X127976428Y-98032380D01*
X128071666Y-97984761D01*
X128119285Y-97937142D01*
X128166904Y-97841904D01*
X128166904Y-97746666D01*
X128119285Y-97651428D01*
X128071666Y-97603809D01*
X127976428Y-97556190D01*
X127785952Y-97508571D01*
X127690714Y-97460952D01*
X127643095Y-97413333D01*
X127595476Y-97318095D01*
X127595476Y-97222857D01*
X127643095Y-97127619D01*
X127690714Y-97080000D01*
X127785952Y-97032380D01*
X128024047Y-97032380D01*
X128166904Y-97080000D01*
X129119285Y-98032380D02*
X128547857Y-98032380D01*
X128833571Y-98032380D02*
X128833571Y-97032380D01*
X128738333Y-97175238D01*
X128643095Y-97270476D01*
X128547857Y-97318095D01*
X129738333Y-97032380D02*
X129833571Y-97032380D01*
X129928809Y-97080000D01*
X129976428Y-97127619D01*
X130024047Y-97222857D01*
X130071666Y-97413333D01*
X130071666Y-97651428D01*
X130024047Y-97841904D01*
X129976428Y-97937142D01*
X129928809Y-97984761D01*
X129833571Y-98032380D01*
X129738333Y-98032380D01*
X129643095Y-97984761D01*
X129595476Y-97937142D01*
X129547857Y-97841904D01*
X129500238Y-97651428D01*
X129500238Y-97413333D01*
X129547857Y-97222857D01*
X129595476Y-97127619D01*
X129643095Y-97080000D01*
X129738333Y-97032380D01*
X131024047Y-98032380D02*
X130452619Y-98032380D01*
X130738333Y-98032380D02*
X130738333Y-97032380D01*
X130643095Y-97175238D01*
X130547857Y-97270476D01*
X130452619Y-97318095D01*
X126134761Y-97099047D02*
X126182380Y-96956190D01*
X126182380Y-96718095D01*
X126134761Y-96622857D01*
X126087142Y-96575238D01*
X125991904Y-96527619D01*
X125896666Y-96527619D01*
X125801428Y-96575238D01*
X125753809Y-96622857D01*
X125706190Y-96718095D01*
X125658571Y-96908571D01*
X125610952Y-97003809D01*
X125563333Y-97051428D01*
X125468095Y-97099047D01*
X125372857Y-97099047D01*
X125277619Y-97051428D01*
X125230000Y-97003809D01*
X125182380Y-96908571D01*
X125182380Y-96670476D01*
X125230000Y-96527619D01*
X126182380Y-96099047D02*
X125182380Y-96099047D01*
X125182380Y-95718095D01*
X125230000Y-95622857D01*
X125277619Y-95575238D01*
X125372857Y-95527619D01*
X125515714Y-95527619D01*
X125610952Y-95575238D01*
X125658571Y-95622857D01*
X125706190Y-95718095D01*
X125706190Y-96099047D01*
X125658571Y-95099047D02*
X125658571Y-94765714D01*
X126182380Y-94622857D02*
X126182380Y-95099047D01*
X125182380Y-95099047D01*
X125182380Y-94622857D01*
X125896666Y-94241904D02*
X125896666Y-93765714D01*
X126182380Y-94337142D02*
X125182380Y-94003809D01*
X126182380Y-93670476D01*
X126182380Y-93337142D02*
X125182380Y-93337142D01*
X126182380Y-92765714D02*
X125610952Y-93194285D01*
X125182380Y-92765714D02*
X125753809Y-93337142D01*
X125658571Y-92337142D02*
X125658571Y-92003809D01*
X126182380Y-91860952D02*
X126182380Y-92337142D01*
X125182380Y-92337142D01*
X125182380Y-91860952D01*
X126182380Y-90860952D02*
X125706190Y-91194285D01*
X126182380Y-91432380D02*
X125182380Y-91432380D01*
X125182380Y-91051428D01*
X125230000Y-90956190D01*
X125277619Y-90908571D01*
X125372857Y-90860952D01*
X125515714Y-90860952D01*
X125610952Y-90908571D01*
X125658571Y-90956190D01*
X125706190Y-91051428D01*
X125706190Y-91432380D01*
%TO.C,R102*%
X96670952Y-88717380D02*
X96337619Y-88241190D01*
X96099523Y-88717380D02*
X96099523Y-87717380D01*
X96480476Y-87717380D01*
X96575714Y-87765000D01*
X96623333Y-87812619D01*
X96670952Y-87907857D01*
X96670952Y-88050714D01*
X96623333Y-88145952D01*
X96575714Y-88193571D01*
X96480476Y-88241190D01*
X96099523Y-88241190D01*
X97623333Y-88717380D02*
X97051904Y-88717380D01*
X97337619Y-88717380D02*
X97337619Y-87717380D01*
X97242380Y-87860238D01*
X97147142Y-87955476D01*
X97051904Y-88003095D01*
X98242380Y-87717380D02*
X98337619Y-87717380D01*
X98432857Y-87765000D01*
X98480476Y-87812619D01*
X98528095Y-87907857D01*
X98575714Y-88098333D01*
X98575714Y-88336428D01*
X98528095Y-88526904D01*
X98480476Y-88622142D01*
X98432857Y-88669761D01*
X98337619Y-88717380D01*
X98242380Y-88717380D01*
X98147142Y-88669761D01*
X98099523Y-88622142D01*
X98051904Y-88526904D01*
X98004285Y-88336428D01*
X98004285Y-88098333D01*
X98051904Y-87907857D01*
X98099523Y-87812619D01*
X98147142Y-87765000D01*
X98242380Y-87717380D01*
X98956666Y-87812619D02*
X99004285Y-87765000D01*
X99099523Y-87717380D01*
X99337619Y-87717380D01*
X99432857Y-87765000D01*
X99480476Y-87812619D01*
X99528095Y-87907857D01*
X99528095Y-88003095D01*
X99480476Y-88145952D01*
X98909047Y-88717380D01*
X99528095Y-88717380D01*
X97599523Y-91257380D02*
X97028095Y-91257380D01*
X97313809Y-91257380D02*
X97313809Y-90257380D01*
X97218571Y-90400238D01*
X97123333Y-90495476D01*
X97028095Y-90543095D01*
X98218571Y-90257380D02*
X98313809Y-90257380D01*
X98409047Y-90305000D01*
X98456666Y-90352619D01*
X98504285Y-90447857D01*
X98551904Y-90638333D01*
X98551904Y-90876428D01*
X98504285Y-91066904D01*
X98456666Y-91162142D01*
X98409047Y-91209761D01*
X98313809Y-91257380D01*
X98218571Y-91257380D01*
X98123333Y-91209761D01*
X98075714Y-91162142D01*
X98028095Y-91066904D01*
X97980476Y-90876428D01*
X97980476Y-90638333D01*
X98028095Y-90447857D01*
X98075714Y-90352619D01*
X98123333Y-90305000D01*
X98218571Y-90257380D01*
D13*
%TO.C,U101*%
X68522547Y-76230721D02*
X68522547Y-76920150D01*
X68522547Y-76575436D02*
X67316047Y-76575436D01*
X67488404Y-76690340D01*
X67603309Y-76805245D01*
X67660761Y-76920150D01*
X67430952Y-75771102D02*
X67373500Y-75713650D01*
X67316047Y-75598745D01*
X67316047Y-75311483D01*
X67373500Y-75196579D01*
X67430952Y-75139126D01*
X67545857Y-75081674D01*
X67660761Y-75081674D01*
X67833119Y-75139126D01*
X68522547Y-75828555D01*
X68522547Y-75081674D01*
X68842547Y-122790721D02*
X68842547Y-123480150D01*
X68842547Y-123135436D02*
X67636047Y-123135436D01*
X67808404Y-123250340D01*
X67923309Y-123365245D01*
X67980761Y-123480150D01*
D11*
%TO.C,C101*%
X80374952Y-78248142D02*
X80327333Y-78295761D01*
X80184476Y-78343380D01*
X80089238Y-78343380D01*
X79946380Y-78295761D01*
X79851142Y-78200523D01*
X79803523Y-78105285D01*
X79755904Y-77914809D01*
X79755904Y-77771952D01*
X79803523Y-77581476D01*
X79851142Y-77486238D01*
X79946380Y-77391000D01*
X80089238Y-77343380D01*
X80184476Y-77343380D01*
X80327333Y-77391000D01*
X80374952Y-77438619D01*
X81327333Y-78343380D02*
X80755904Y-78343380D01*
X81041619Y-78343380D02*
X81041619Y-77343380D01*
X80946380Y-77486238D01*
X80851142Y-77581476D01*
X80755904Y-77629095D01*
X81946380Y-77343380D02*
X82041619Y-77343380D01*
X82136857Y-77391000D01*
X82184476Y-77438619D01*
X82232095Y-77533857D01*
X82279714Y-77724333D01*
X82279714Y-77962428D01*
X82232095Y-78152904D01*
X82184476Y-78248142D01*
X82136857Y-78295761D01*
X82041619Y-78343380D01*
X81946380Y-78343380D01*
X81851142Y-78295761D01*
X81803523Y-78248142D01*
X81755904Y-78152904D01*
X81708285Y-77962428D01*
X81708285Y-77724333D01*
X81755904Y-77533857D01*
X81803523Y-77438619D01*
X81851142Y-77391000D01*
X81946380Y-77343380D01*
X83232095Y-78343380D02*
X82660666Y-78343380D01*
X82946380Y-78343380D02*
X82946380Y-77343380D01*
X82851142Y-77486238D01*
X82755904Y-77581476D01*
X82660666Y-77629095D01*
X80279714Y-80097380D02*
X80374952Y-80097380D01*
X80470190Y-80145000D01*
X80517809Y-80192619D01*
X80565428Y-80287857D01*
X80613047Y-80478333D01*
X80613047Y-80716428D01*
X80565428Y-80906904D01*
X80517809Y-81002142D01*
X80470190Y-81049761D01*
X80374952Y-81097380D01*
X80279714Y-81097380D01*
X80184476Y-81049761D01*
X80136857Y-81002142D01*
X80089238Y-80906904D01*
X80041619Y-80716428D01*
X80041619Y-80478333D01*
X80089238Y-80287857D01*
X80136857Y-80192619D01*
X80184476Y-80145000D01*
X80279714Y-80097380D01*
X81041619Y-81002142D02*
X81089238Y-81049761D01*
X81041619Y-81097380D01*
X80994000Y-81049761D01*
X81041619Y-81002142D01*
X81041619Y-81097380D01*
X82041619Y-81097380D02*
X81470190Y-81097380D01*
X81755904Y-81097380D02*
X81755904Y-80097380D01*
X81660666Y-80240238D01*
X81565428Y-80335476D01*
X81470190Y-80383095D01*
X82898761Y-80430714D02*
X82898761Y-81097380D01*
X82470190Y-80430714D02*
X82470190Y-80954523D01*
X82517809Y-81049761D01*
X82613047Y-81097380D01*
X82755904Y-81097380D01*
X82851142Y-81049761D01*
X82898761Y-81002142D01*
%TO.C,JP101*%
X115657380Y-95765714D02*
X116371666Y-95765714D01*
X116514523Y-95813333D01*
X116609761Y-95908571D01*
X116657380Y-96051428D01*
X116657380Y-96146666D01*
X116657380Y-95289523D02*
X115657380Y-95289523D01*
X115657380Y-94908571D01*
X115705000Y-94813333D01*
X115752619Y-94765714D01*
X115847857Y-94718095D01*
X115990714Y-94718095D01*
X116085952Y-94765714D01*
X116133571Y-94813333D01*
X116181190Y-94908571D01*
X116181190Y-95289523D01*
X116657380Y-93765714D02*
X116657380Y-94337142D01*
X116657380Y-94051428D02*
X115657380Y-94051428D01*
X115800238Y-94146666D01*
X115895476Y-94241904D01*
X115943095Y-94337142D01*
X115657380Y-93146666D02*
X115657380Y-93051428D01*
X115705000Y-92956190D01*
X115752619Y-92908571D01*
X115847857Y-92860952D01*
X116038333Y-92813333D01*
X116276428Y-92813333D01*
X116466904Y-92860952D01*
X116562142Y-92908571D01*
X116609761Y-92956190D01*
X116657380Y-93051428D01*
X116657380Y-93146666D01*
X116609761Y-93241904D01*
X116562142Y-93289523D01*
X116466904Y-93337142D01*
X116276428Y-93384761D01*
X116038333Y-93384761D01*
X115847857Y-93337142D01*
X115752619Y-93289523D01*
X115705000Y-93241904D01*
X115657380Y-93146666D01*
X116657380Y-91860952D02*
X116657380Y-92432380D01*
X116657380Y-92146666D02*
X115657380Y-92146666D01*
X115800238Y-92241904D01*
X115895476Y-92337142D01*
X115943095Y-92432380D01*
X121213571Y-96980000D02*
X121213571Y-97313333D01*
X121737380Y-97313333D02*
X120737380Y-97313333D01*
X120737380Y-96837142D01*
X121737380Y-96313333D02*
X121689761Y-96408571D01*
X121594523Y-96456190D01*
X120737380Y-96456190D01*
X121070714Y-96075238D02*
X121070714Y-95694285D01*
X120737380Y-95932380D02*
X121594523Y-95932380D01*
X121689761Y-95884761D01*
X121737380Y-95789523D01*
X121737380Y-95694285D01*
X121213571Y-95027619D02*
X121261190Y-94884761D01*
X121308809Y-94837142D01*
X121404047Y-94789523D01*
X121546904Y-94789523D01*
X121642142Y-94837142D01*
X121689761Y-94884761D01*
X121737380Y-94980000D01*
X121737380Y-95360952D01*
X120737380Y-95360952D01*
X120737380Y-95027619D01*
X120785000Y-94932380D01*
X120832619Y-94884761D01*
X120927857Y-94837142D01*
X121023095Y-94837142D01*
X121118333Y-94884761D01*
X121165952Y-94932380D01*
X121213571Y-95027619D01*
X121213571Y-95360952D01*
X121070714Y-94456190D02*
X121737380Y-94218095D01*
X121070714Y-93980000D02*
X121737380Y-94218095D01*
X121975476Y-94313333D01*
X122023095Y-94360952D01*
X122070714Y-94456190D01*
X121070714Y-93599047D02*
X122070714Y-93599047D01*
X121118333Y-93599047D02*
X121070714Y-93503809D01*
X121070714Y-93313333D01*
X121118333Y-93218095D01*
X121165952Y-93170476D01*
X121261190Y-93122857D01*
X121546904Y-93122857D01*
X121642142Y-93170476D01*
X121689761Y-93218095D01*
X121737380Y-93313333D01*
X121737380Y-93503809D01*
X121689761Y-93599047D01*
X121737380Y-92265714D02*
X121213571Y-92265714D01*
X121118333Y-92313333D01*
X121070714Y-92408571D01*
X121070714Y-92599047D01*
X121118333Y-92694285D01*
X121689761Y-92265714D02*
X121737380Y-92360952D01*
X121737380Y-92599047D01*
X121689761Y-92694285D01*
X121594523Y-92741904D01*
X121499285Y-92741904D01*
X121404047Y-92694285D01*
X121356428Y-92599047D01*
X121356428Y-92360952D01*
X121308809Y-92265714D01*
X121689761Y-91837142D02*
X121737380Y-91741904D01*
X121737380Y-91551428D01*
X121689761Y-91456190D01*
X121594523Y-91408571D01*
X121546904Y-91408571D01*
X121451666Y-91456190D01*
X121404047Y-91551428D01*
X121404047Y-91694285D01*
X121356428Y-91789523D01*
X121261190Y-91837142D01*
X121213571Y-91837142D01*
X121118333Y-91789523D01*
X121070714Y-91694285D01*
X121070714Y-91551428D01*
X121118333Y-91456190D01*
X121689761Y-91027619D02*
X121737380Y-90932380D01*
X121737380Y-90741904D01*
X121689761Y-90646666D01*
X121594523Y-90599047D01*
X121546904Y-90599047D01*
X121451666Y-90646666D01*
X121404047Y-90741904D01*
X121404047Y-90884761D01*
X121356428Y-90980000D01*
X121261190Y-91027619D01*
X121213571Y-91027619D01*
X121118333Y-90980000D01*
X121070714Y-90884761D01*
X121070714Y-90741904D01*
X121118333Y-90646666D01*
%TO.C,C106*%
X130487142Y-103969047D02*
X130534761Y-104016666D01*
X130582380Y-104159523D01*
X130582380Y-104254761D01*
X130534761Y-104397619D01*
X130439523Y-104492857D01*
X130344285Y-104540476D01*
X130153809Y-104588095D01*
X130010952Y-104588095D01*
X129820476Y-104540476D01*
X129725238Y-104492857D01*
X129630000Y-104397619D01*
X129582380Y-104254761D01*
X129582380Y-104159523D01*
X129630000Y-104016666D01*
X129677619Y-103969047D01*
X130582380Y-103016666D02*
X130582380Y-103588095D01*
X130582380Y-103302380D02*
X129582380Y-103302380D01*
X129725238Y-103397619D01*
X129820476Y-103492857D01*
X129868095Y-103588095D01*
X129582380Y-102397619D02*
X129582380Y-102302380D01*
X129630000Y-102207142D01*
X129677619Y-102159523D01*
X129772857Y-102111904D01*
X129963333Y-102064285D01*
X130201428Y-102064285D01*
X130391904Y-102111904D01*
X130487142Y-102159523D01*
X130534761Y-102207142D01*
X130582380Y-102302380D01*
X130582380Y-102397619D01*
X130534761Y-102492857D01*
X130487142Y-102540476D01*
X130391904Y-102588095D01*
X130201428Y-102635714D01*
X129963333Y-102635714D01*
X129772857Y-102588095D01*
X129677619Y-102540476D01*
X129630000Y-102492857D01*
X129582380Y-102397619D01*
X129582380Y-101207142D02*
X129582380Y-101397619D01*
X129630000Y-101492857D01*
X129677619Y-101540476D01*
X129820476Y-101635714D01*
X130010952Y-101683333D01*
X130391904Y-101683333D01*
X130487142Y-101635714D01*
X130534761Y-101588095D01*
X130582380Y-101492857D01*
X130582380Y-101302380D01*
X130534761Y-101207142D01*
X130487142Y-101159523D01*
X130391904Y-101111904D01*
X130153809Y-101111904D01*
X130058571Y-101159523D01*
X130010952Y-101207142D01*
X129963333Y-101302380D01*
X129963333Y-101492857D01*
X130010952Y-101588095D01*
X130058571Y-101635714D01*
X130153809Y-101683333D01*
X121737380Y-103465238D02*
X121737380Y-104036666D01*
X121737380Y-103750952D02*
X120737380Y-103750952D01*
X120880238Y-103846190D01*
X120975476Y-103941428D01*
X121023095Y-104036666D01*
X121070714Y-102608095D02*
X121737380Y-102608095D01*
X121070714Y-103036666D02*
X121594523Y-103036666D01*
X121689761Y-102989047D01*
X121737380Y-102893809D01*
X121737380Y-102750952D01*
X121689761Y-102655714D01*
X121642142Y-102608095D01*
X121213571Y-101798571D02*
X121213571Y-102131904D01*
X121737380Y-102131904D02*
X120737380Y-102131904D01*
X120737380Y-101655714D01*
%TO.C,C102*%
X103100952Y-101322142D02*
X103053333Y-101369761D01*
X102910476Y-101417380D01*
X102815238Y-101417380D01*
X102672380Y-101369761D01*
X102577142Y-101274523D01*
X102529523Y-101179285D01*
X102481904Y-100988809D01*
X102481904Y-100845952D01*
X102529523Y-100655476D01*
X102577142Y-100560238D01*
X102672380Y-100465000D01*
X102815238Y-100417380D01*
X102910476Y-100417380D01*
X103053333Y-100465000D01*
X103100952Y-100512619D01*
X104053333Y-101417380D02*
X103481904Y-101417380D01*
X103767619Y-101417380D02*
X103767619Y-100417380D01*
X103672380Y-100560238D01*
X103577142Y-100655476D01*
X103481904Y-100703095D01*
X104672380Y-100417380D02*
X104767619Y-100417380D01*
X104862857Y-100465000D01*
X104910476Y-100512619D01*
X104958095Y-100607857D01*
X105005714Y-100798333D01*
X105005714Y-101036428D01*
X104958095Y-101226904D01*
X104910476Y-101322142D01*
X104862857Y-101369761D01*
X104767619Y-101417380D01*
X104672380Y-101417380D01*
X104577142Y-101369761D01*
X104529523Y-101322142D01*
X104481904Y-101226904D01*
X104434285Y-101036428D01*
X104434285Y-100798333D01*
X104481904Y-100607857D01*
X104529523Y-100512619D01*
X104577142Y-100465000D01*
X104672380Y-100417380D01*
X105386666Y-100512619D02*
X105434285Y-100465000D01*
X105529523Y-100417380D01*
X105767619Y-100417380D01*
X105862857Y-100465000D01*
X105910476Y-100512619D01*
X105958095Y-100607857D01*
X105958095Y-100703095D01*
X105910476Y-100845952D01*
X105339047Y-101417380D01*
X105958095Y-101417380D01*
X96187142Y-100512619D02*
X96234761Y-100465000D01*
X96330000Y-100417380D01*
X96568095Y-100417380D01*
X96663333Y-100465000D01*
X96710952Y-100512619D01*
X96758571Y-100607857D01*
X96758571Y-100703095D01*
X96710952Y-100845952D01*
X96139523Y-101417380D01*
X96758571Y-101417380D01*
X97139523Y-100512619D02*
X97187142Y-100465000D01*
X97282380Y-100417380D01*
X97520476Y-100417380D01*
X97615714Y-100465000D01*
X97663333Y-100512619D01*
X97710952Y-100607857D01*
X97710952Y-100703095D01*
X97663333Y-100845952D01*
X97091904Y-101417380D01*
X97710952Y-101417380D01*
X98139523Y-100750714D02*
X98139523Y-101417380D01*
X98139523Y-100845952D02*
X98187142Y-100798333D01*
X98282380Y-100750714D01*
X98425238Y-100750714D01*
X98520476Y-100798333D01*
X98568095Y-100893571D01*
X98568095Y-101417380D01*
X99377619Y-100893571D02*
X99044285Y-100893571D01*
X99044285Y-101417380D02*
X99044285Y-100417380D01*
X99520476Y-100417380D01*
%TO.C,C104*%
X70506142Y-125599047D02*
X70553761Y-125646666D01*
X70601380Y-125789523D01*
X70601380Y-125884761D01*
X70553761Y-126027619D01*
X70458523Y-126122857D01*
X70363285Y-126170476D01*
X70172809Y-126218095D01*
X70029952Y-126218095D01*
X69839476Y-126170476D01*
X69744238Y-126122857D01*
X69649000Y-126027619D01*
X69601380Y-125884761D01*
X69601380Y-125789523D01*
X69649000Y-125646666D01*
X69696619Y-125599047D01*
X70601380Y-124646666D02*
X70601380Y-125218095D01*
X70601380Y-124932380D02*
X69601380Y-124932380D01*
X69744238Y-125027619D01*
X69839476Y-125122857D01*
X69887095Y-125218095D01*
X69601380Y-124027619D02*
X69601380Y-123932380D01*
X69649000Y-123837142D01*
X69696619Y-123789523D01*
X69791857Y-123741904D01*
X69982333Y-123694285D01*
X70220428Y-123694285D01*
X70410904Y-123741904D01*
X70506142Y-123789523D01*
X70553761Y-123837142D01*
X70601380Y-123932380D01*
X70601380Y-124027619D01*
X70553761Y-124122857D01*
X70506142Y-124170476D01*
X70410904Y-124218095D01*
X70220428Y-124265714D01*
X69982333Y-124265714D01*
X69791857Y-124218095D01*
X69696619Y-124170476D01*
X69649000Y-124122857D01*
X69601380Y-124027619D01*
X69934714Y-122837142D02*
X70601380Y-122837142D01*
X69553761Y-123075238D02*
X70268047Y-123313333D01*
X70268047Y-122694285D01*
X79401380Y-125551428D02*
X79401380Y-126122857D01*
X79401380Y-125837142D02*
X78401380Y-125837142D01*
X78544238Y-125932380D01*
X78639476Y-126027619D01*
X78687095Y-126122857D01*
X78401380Y-124932380D02*
X78401380Y-124837142D01*
X78449000Y-124741904D01*
X78496619Y-124694285D01*
X78591857Y-124646666D01*
X78782333Y-124599047D01*
X79020428Y-124599047D01*
X79210904Y-124646666D01*
X79306142Y-124694285D01*
X79353761Y-124741904D01*
X79401380Y-124837142D01*
X79401380Y-124932380D01*
X79353761Y-125027619D01*
X79306142Y-125075238D01*
X79210904Y-125122857D01*
X79020428Y-125170476D01*
X78782333Y-125170476D01*
X78591857Y-125122857D01*
X78496619Y-125075238D01*
X78449000Y-125027619D01*
X78401380Y-124932380D01*
X78734714Y-123741904D02*
X79401380Y-123741904D01*
X78734714Y-124170476D02*
X79258523Y-124170476D01*
X79353761Y-124122857D01*
X79401380Y-124027619D01*
X79401380Y-123884761D01*
X79353761Y-123789523D01*
X79306142Y-123741904D01*
X78877571Y-122932380D02*
X78877571Y-123265714D01*
X79401380Y-123265714D02*
X78401380Y-123265714D01*
X78401380Y-122789523D01*
%TO.C,C105*%
X103020952Y-104497142D02*
X102973333Y-104544761D01*
X102830476Y-104592380D01*
X102735238Y-104592380D01*
X102592380Y-104544761D01*
X102497142Y-104449523D01*
X102449523Y-104354285D01*
X102401904Y-104163809D01*
X102401904Y-104020952D01*
X102449523Y-103830476D01*
X102497142Y-103735238D01*
X102592380Y-103640000D01*
X102735238Y-103592380D01*
X102830476Y-103592380D01*
X102973333Y-103640000D01*
X103020952Y-103687619D01*
X103973333Y-104592380D02*
X103401904Y-104592380D01*
X103687619Y-104592380D02*
X103687619Y-103592380D01*
X103592380Y-103735238D01*
X103497142Y-103830476D01*
X103401904Y-103878095D01*
X104592380Y-103592380D02*
X104687619Y-103592380D01*
X104782857Y-103640000D01*
X104830476Y-103687619D01*
X104878095Y-103782857D01*
X104925714Y-103973333D01*
X104925714Y-104211428D01*
X104878095Y-104401904D01*
X104830476Y-104497142D01*
X104782857Y-104544761D01*
X104687619Y-104592380D01*
X104592380Y-104592380D01*
X104497142Y-104544761D01*
X104449523Y-104497142D01*
X104401904Y-104401904D01*
X104354285Y-104211428D01*
X104354285Y-103973333D01*
X104401904Y-103782857D01*
X104449523Y-103687619D01*
X104497142Y-103640000D01*
X104592380Y-103592380D01*
X105830476Y-103592380D02*
X105354285Y-103592380D01*
X105306666Y-104068571D01*
X105354285Y-104020952D01*
X105449523Y-103973333D01*
X105687619Y-103973333D01*
X105782857Y-104020952D01*
X105830476Y-104068571D01*
X105878095Y-104163809D01*
X105878095Y-104401904D01*
X105830476Y-104497142D01*
X105782857Y-104544761D01*
X105687619Y-104592380D01*
X105449523Y-104592380D01*
X105354285Y-104544761D01*
X105306666Y-104497142D01*
X96107142Y-103687619D02*
X96154761Y-103640000D01*
X96250000Y-103592380D01*
X96488095Y-103592380D01*
X96583333Y-103640000D01*
X96630952Y-103687619D01*
X96678571Y-103782857D01*
X96678571Y-103878095D01*
X96630952Y-104020952D01*
X96059523Y-104592380D01*
X96678571Y-104592380D01*
X97059523Y-103687619D02*
X97107142Y-103640000D01*
X97202380Y-103592380D01*
X97440476Y-103592380D01*
X97535714Y-103640000D01*
X97583333Y-103687619D01*
X97630952Y-103782857D01*
X97630952Y-103878095D01*
X97583333Y-104020952D01*
X97011904Y-104592380D01*
X97630952Y-104592380D01*
X98059523Y-103925714D02*
X98059523Y-104592380D01*
X98059523Y-104020952D02*
X98107142Y-103973333D01*
X98202380Y-103925714D01*
X98345238Y-103925714D01*
X98440476Y-103973333D01*
X98488095Y-104068571D01*
X98488095Y-104592380D01*
X99297619Y-104068571D02*
X98964285Y-104068571D01*
X98964285Y-104592380D02*
X98964285Y-103592380D01*
X99440476Y-103592380D01*
%TO.C,R106*%
X91590952Y-121102380D02*
X91257619Y-120626190D01*
X91019523Y-121102380D02*
X91019523Y-120102380D01*
X91400476Y-120102380D01*
X91495714Y-120150000D01*
X91543333Y-120197619D01*
X91590952Y-120292857D01*
X91590952Y-120435714D01*
X91543333Y-120530952D01*
X91495714Y-120578571D01*
X91400476Y-120626190D01*
X91019523Y-120626190D01*
X92543333Y-121102380D02*
X91971904Y-121102380D01*
X92257619Y-121102380D02*
X92257619Y-120102380D01*
X92162380Y-120245238D01*
X92067142Y-120340476D01*
X91971904Y-120388095D01*
X93162380Y-120102380D02*
X93257619Y-120102380D01*
X93352857Y-120150000D01*
X93400476Y-120197619D01*
X93448095Y-120292857D01*
X93495714Y-120483333D01*
X93495714Y-120721428D01*
X93448095Y-120911904D01*
X93400476Y-121007142D01*
X93352857Y-121054761D01*
X93257619Y-121102380D01*
X93162380Y-121102380D01*
X93067142Y-121054761D01*
X93019523Y-121007142D01*
X92971904Y-120911904D01*
X92924285Y-120721428D01*
X92924285Y-120483333D01*
X92971904Y-120292857D01*
X93019523Y-120197619D01*
X93067142Y-120150000D01*
X93162380Y-120102380D01*
X94352857Y-120102380D02*
X94162380Y-120102380D01*
X94067142Y-120150000D01*
X94019523Y-120197619D01*
X93924285Y-120340476D01*
X93876666Y-120530952D01*
X93876666Y-120911904D01*
X93924285Y-121007142D01*
X93971904Y-121054761D01*
X94067142Y-121102380D01*
X94257619Y-121102380D01*
X94352857Y-121054761D01*
X94400476Y-121007142D01*
X94448095Y-120911904D01*
X94448095Y-120673809D01*
X94400476Y-120578571D01*
X94352857Y-120530952D01*
X94257619Y-120483333D01*
X94067142Y-120483333D01*
X93971904Y-120530952D01*
X93924285Y-120578571D01*
X93876666Y-120673809D01*
X98869523Y-124912380D02*
X98298095Y-124912380D01*
X98583809Y-124912380D02*
X98583809Y-123912380D01*
X98488571Y-124055238D01*
X98393333Y-124150476D01*
X98298095Y-124198095D01*
X99488571Y-123912380D02*
X99583809Y-123912380D01*
X99679047Y-123960000D01*
X99726666Y-124007619D01*
X99774285Y-124102857D01*
X99821904Y-124293333D01*
X99821904Y-124531428D01*
X99774285Y-124721904D01*
X99726666Y-124817142D01*
X99679047Y-124864761D01*
X99583809Y-124912380D01*
X99488571Y-124912380D01*
X99393333Y-124864761D01*
X99345714Y-124817142D01*
X99298095Y-124721904D01*
X99250476Y-124531428D01*
X99250476Y-124293333D01*
X99298095Y-124102857D01*
X99345714Y-124007619D01*
X99393333Y-123960000D01*
X99488571Y-123912380D01*
%TO.C,LK101*%
X83470952Y-123812380D02*
X82994761Y-123812380D01*
X82994761Y-122812380D01*
X83804285Y-123812380D02*
X83804285Y-122812380D01*
X84375714Y-123812380D02*
X83947142Y-123240952D01*
X84375714Y-122812380D02*
X83804285Y-123383809D01*
X85328095Y-123812380D02*
X84756666Y-123812380D01*
X85042380Y-123812380D02*
X85042380Y-122812380D01*
X84947142Y-122955238D01*
X84851904Y-123050476D01*
X84756666Y-123098095D01*
X85947142Y-122812380D02*
X86042380Y-122812380D01*
X86137619Y-122860000D01*
X86185238Y-122907619D01*
X86232857Y-123002857D01*
X86280476Y-123193333D01*
X86280476Y-123431428D01*
X86232857Y-123621904D01*
X86185238Y-123717142D01*
X86137619Y-123764761D01*
X86042380Y-123812380D01*
X85947142Y-123812380D01*
X85851904Y-123764761D01*
X85804285Y-123717142D01*
X85756666Y-123621904D01*
X85709047Y-123431428D01*
X85709047Y-123193333D01*
X85756666Y-123002857D01*
X85804285Y-122907619D01*
X85851904Y-122860000D01*
X85947142Y-122812380D01*
X87232857Y-123812380D02*
X86661428Y-123812380D01*
X86947142Y-123812380D02*
X86947142Y-122812380D01*
X86851904Y-122955238D01*
X86756666Y-123050476D01*
X86661428Y-123098095D01*
%TO.C,C110*%
X97940952Y-127357142D02*
X97893333Y-127404761D01*
X97750476Y-127452380D01*
X97655238Y-127452380D01*
X97512380Y-127404761D01*
X97417142Y-127309523D01*
X97369523Y-127214285D01*
X97321904Y-127023809D01*
X97321904Y-126880952D01*
X97369523Y-126690476D01*
X97417142Y-126595238D01*
X97512380Y-126500000D01*
X97655238Y-126452380D01*
X97750476Y-126452380D01*
X97893333Y-126500000D01*
X97940952Y-126547619D01*
X98893333Y-127452380D02*
X98321904Y-127452380D01*
X98607619Y-127452380D02*
X98607619Y-126452380D01*
X98512380Y-126595238D01*
X98417142Y-126690476D01*
X98321904Y-126738095D01*
X99845714Y-127452380D02*
X99274285Y-127452380D01*
X99560000Y-127452380D02*
X99560000Y-126452380D01*
X99464761Y-126595238D01*
X99369523Y-126690476D01*
X99274285Y-126738095D01*
X100464761Y-126452380D02*
X100560000Y-126452380D01*
X100655238Y-126500000D01*
X100702857Y-126547619D01*
X100750476Y-126642857D01*
X100798095Y-126833333D01*
X100798095Y-127071428D01*
X100750476Y-127261904D01*
X100702857Y-127357142D01*
X100655238Y-127404761D01*
X100560000Y-127452380D01*
X100464761Y-127452380D01*
X100369523Y-127404761D01*
X100321904Y-127357142D01*
X100274285Y-127261904D01*
X100226666Y-127071428D01*
X100226666Y-126833333D01*
X100274285Y-126642857D01*
X100321904Y-126547619D01*
X100369523Y-126500000D01*
X100464761Y-126452380D01*
X97845714Y-120102380D02*
X97940952Y-120102380D01*
X98036190Y-120150000D01*
X98083809Y-120197619D01*
X98131428Y-120292857D01*
X98179047Y-120483333D01*
X98179047Y-120721428D01*
X98131428Y-120911904D01*
X98083809Y-121007142D01*
X98036190Y-121054761D01*
X97940952Y-121102380D01*
X97845714Y-121102380D01*
X97750476Y-121054761D01*
X97702857Y-121007142D01*
X97655238Y-120911904D01*
X97607619Y-120721428D01*
X97607619Y-120483333D01*
X97655238Y-120292857D01*
X97702857Y-120197619D01*
X97750476Y-120150000D01*
X97845714Y-120102380D01*
X98607619Y-121007142D02*
X98655238Y-121054761D01*
X98607619Y-121102380D01*
X98560000Y-121054761D01*
X98607619Y-121007142D01*
X98607619Y-121102380D01*
X99607619Y-121102380D02*
X99036190Y-121102380D01*
X99321904Y-121102380D02*
X99321904Y-120102380D01*
X99226666Y-120245238D01*
X99131428Y-120340476D01*
X99036190Y-120388095D01*
X100464761Y-120435714D02*
X100464761Y-121102380D01*
X100036190Y-120435714D02*
X100036190Y-120959523D01*
X100083809Y-121054761D01*
X100179047Y-121102380D01*
X100321904Y-121102380D01*
X100417142Y-121054761D01*
X100464761Y-121007142D01*
%TO.C,R103*%
X104290952Y-94432380D02*
X103957619Y-93956190D01*
X103719523Y-94432380D02*
X103719523Y-93432380D01*
X104100476Y-93432380D01*
X104195714Y-93480000D01*
X104243333Y-93527619D01*
X104290952Y-93622857D01*
X104290952Y-93765714D01*
X104243333Y-93860952D01*
X104195714Y-93908571D01*
X104100476Y-93956190D01*
X103719523Y-93956190D01*
X105243333Y-94432380D02*
X104671904Y-94432380D01*
X104957619Y-94432380D02*
X104957619Y-93432380D01*
X104862380Y-93575238D01*
X104767142Y-93670476D01*
X104671904Y-93718095D01*
X105862380Y-93432380D02*
X105957619Y-93432380D01*
X106052857Y-93480000D01*
X106100476Y-93527619D01*
X106148095Y-93622857D01*
X106195714Y-93813333D01*
X106195714Y-94051428D01*
X106148095Y-94241904D01*
X106100476Y-94337142D01*
X106052857Y-94384761D01*
X105957619Y-94432380D01*
X105862380Y-94432380D01*
X105767142Y-94384761D01*
X105719523Y-94337142D01*
X105671904Y-94241904D01*
X105624285Y-94051428D01*
X105624285Y-93813333D01*
X105671904Y-93622857D01*
X105719523Y-93527619D01*
X105767142Y-93480000D01*
X105862380Y-93432380D01*
X106529047Y-93432380D02*
X107148095Y-93432380D01*
X106814761Y-93813333D01*
X106957619Y-93813333D01*
X107052857Y-93860952D01*
X107100476Y-93908571D01*
X107148095Y-94003809D01*
X107148095Y-94241904D01*
X107100476Y-94337142D01*
X107052857Y-94384761D01*
X106957619Y-94432380D01*
X106671904Y-94432380D01*
X106576666Y-94384761D01*
X106529047Y-94337142D01*
X96480476Y-93432380D02*
X97099523Y-93432380D01*
X96766190Y-93813333D01*
X96909047Y-93813333D01*
X97004285Y-93860952D01*
X97051904Y-93908571D01*
X97099523Y-94003809D01*
X97099523Y-94241904D01*
X97051904Y-94337142D01*
X97004285Y-94384761D01*
X96909047Y-94432380D01*
X96623333Y-94432380D01*
X96528095Y-94384761D01*
X96480476Y-94337142D01*
X97432857Y-93432380D02*
X98051904Y-93432380D01*
X97718571Y-93813333D01*
X97861428Y-93813333D01*
X97956666Y-93860952D01*
X98004285Y-93908571D01*
X98051904Y-94003809D01*
X98051904Y-94241904D01*
X98004285Y-94337142D01*
X97956666Y-94384761D01*
X97861428Y-94432380D01*
X97575714Y-94432380D01*
X97480476Y-94384761D01*
X97432857Y-94337142D01*
X98480476Y-94432380D02*
X98480476Y-93432380D01*
X99051904Y-94432380D02*
X98623333Y-93860952D01*
X99051904Y-93432380D02*
X98480476Y-94003809D01*
D14*
%TO.C,C108*%
X113895000Y-104011000D02*
X111902000Y-104011000D01*
X113895000Y-104451000D02*
X112101000Y-104451000D01*
X113895000Y-105091000D02*
X112555000Y-105091000D01*
X113895000Y-103530000D02*
X111768000Y-103530000D01*
X113895000Y-103170000D02*
X111717000Y-103170000D01*
X117240000Y-105171000D02*
X115975000Y-105171000D01*
X113895000Y-104811000D02*
X112328000Y-104811000D01*
X117851000Y-104291000D02*
X115975000Y-104291000D01*
X113895000Y-104411000D02*
X112079000Y-104411000D01*
X116774000Y-99389759D02*
X116774000Y-100019759D01*
X117542000Y-104811000D02*
X115975000Y-104811000D01*
X116197000Y-105891000D02*
X113673000Y-105891000D01*
X113895000Y-104971000D02*
X112451000Y-104971000D01*
X116100000Y-105931000D02*
X113770000Y-105931000D01*
X116285000Y-105851000D02*
X113585000Y-105851000D01*
X117278000Y-105131000D02*
X115975000Y-105131000D01*
X113895000Y-104731000D02*
X112271000Y-104731000D01*
X118162000Y-103050000D02*
X111708000Y-103050000D01*
X118163000Y-103010000D02*
X111707000Y-103010000D01*
X116444000Y-105771000D02*
X113426000Y-105771000D01*
X113895000Y-103210000D02*
X111720000Y-103210000D01*
X118066000Y-103691000D02*
X115975000Y-103691000D01*
X117599000Y-104731000D02*
X115975000Y-104731000D01*
X113895000Y-103931000D02*
X111874000Y-103931000D01*
X113895000Y-105011000D02*
X112485000Y-105011000D01*
X118117000Y-103450000D02*
X115975000Y-103450000D01*
X118045000Y-103771000D02*
X115975000Y-103771000D01*
X118033000Y-103811000D02*
X115975000Y-103811000D01*
X113895000Y-104051000D02*
X111917000Y-104051000D01*
X118165000Y-102890000D02*
X111705000Y-102890000D01*
X115568000Y-106091000D02*
X114302000Y-106091000D01*
X113895000Y-103971000D02*
X111888000Y-103971000D01*
X116979000Y-105411000D02*
X112891000Y-105411000D01*
X117791000Y-104411000D02*
X115975000Y-104411000D01*
X113895000Y-103771000D02*
X111825000Y-103771000D01*
X116769000Y-105571000D02*
X113101000Y-105571000D01*
X117385000Y-105011000D02*
X115975000Y-105011000D01*
X117869000Y-104251000D02*
X115975000Y-104251000D01*
X113895000Y-104571000D02*
X112169000Y-104571000D01*
X117571000Y-104771000D02*
X115975000Y-104771000D01*
X116825000Y-105531000D02*
X113045000Y-105531000D01*
X113895000Y-103490000D02*
X111760000Y-103490000D01*
X118159000Y-103090000D02*
X111711000Y-103090000D01*
X118076000Y-103651000D02*
X115975000Y-103651000D01*
X113895000Y-103691000D02*
X111804000Y-103691000D01*
X113895000Y-104171000D02*
X111965000Y-104171000D01*
X118102000Y-103530000D02*
X115975000Y-103530000D01*
X113895000Y-104371000D02*
X112059000Y-104371000D01*
X113895000Y-105171000D02*
X112630000Y-105171000D01*
X113895000Y-103731000D02*
X111814000Y-103731000D01*
X118153000Y-103170000D02*
X115975000Y-103170000D01*
X117905000Y-104171000D02*
X115975000Y-104171000D01*
X113895000Y-104291000D02*
X112019000Y-104291000D01*
X116649000Y-105651000D02*
X113221000Y-105651000D01*
X115994000Y-105971000D02*
X113876000Y-105971000D01*
X117027000Y-105371000D02*
X112843000Y-105371000D01*
X113895000Y-103570000D02*
X111776000Y-103570000D01*
X117725000Y-104531000D02*
X115975000Y-104531000D01*
X113895000Y-104691000D02*
X112245000Y-104691000D01*
X113895000Y-104331000D02*
X112039000Y-104331000D01*
X113895000Y-105051000D02*
X112519000Y-105051000D01*
X113895000Y-104771000D02*
X112299000Y-104771000D01*
X118056000Y-103731000D02*
X115975000Y-103731000D01*
X117072000Y-105331000D02*
X112798000Y-105331000D01*
X118021000Y-103851000D02*
X115975000Y-103851000D01*
X118130000Y-103370000D02*
X115975000Y-103370000D01*
X118157000Y-103130000D02*
X115975000Y-103130000D01*
X117483000Y-104891000D02*
X115975000Y-104891000D01*
X113895000Y-103811000D02*
X111837000Y-103811000D01*
X115875000Y-106011000D02*
X113995000Y-106011000D01*
X113895000Y-103851000D02*
X111849000Y-103851000D01*
X113895000Y-103330000D02*
X111734000Y-103330000D01*
X118165000Y-102970000D02*
X111705000Y-102970000D01*
X113895000Y-104491000D02*
X112123000Y-104491000D01*
X113895000Y-103611000D02*
X111785000Y-103611000D01*
X113895000Y-103651000D02*
X111794000Y-103651000D01*
X117351000Y-105051000D02*
X115975000Y-105051000D01*
X113895000Y-104851000D02*
X112357000Y-104851000D01*
X117831000Y-104331000D02*
X115975000Y-104331000D01*
X118110000Y-103490000D02*
X115975000Y-103490000D01*
X116930000Y-105451000D02*
X112940000Y-105451000D01*
X113895000Y-104891000D02*
X112387000Y-104891000D01*
X117159000Y-105251000D02*
X112711000Y-105251000D01*
X113895000Y-104091000D02*
X111933000Y-104091000D01*
X116585000Y-105691000D02*
X113285000Y-105691000D01*
X113895000Y-104931000D02*
X112419000Y-104931000D01*
X117747000Y-104491000D02*
X115975000Y-104491000D01*
X118124000Y-103410000D02*
X115975000Y-103410000D01*
X117315000Y-105091000D02*
X115975000Y-105091000D01*
X118136000Y-103330000D02*
X115975000Y-103330000D01*
X113895000Y-104611000D02*
X112193000Y-104611000D01*
X117651000Y-104651000D02*
X115975000Y-104651000D01*
X113895000Y-104131000D02*
X111949000Y-104131000D01*
X117625000Y-104691000D02*
X115975000Y-104691000D01*
X113895000Y-103290000D02*
X111729000Y-103290000D01*
X113895000Y-103891000D02*
X111861000Y-103891000D01*
X117968000Y-104011000D02*
X115975000Y-104011000D01*
X117811000Y-104371000D02*
X115975000Y-104371000D01*
X117419000Y-104971000D02*
X115975000Y-104971000D01*
X117982000Y-103971000D02*
X115975000Y-103971000D01*
X113895000Y-104211000D02*
X111983000Y-104211000D01*
X117701000Y-104571000D02*
X115975000Y-104571000D01*
X113895000Y-103130000D02*
X111713000Y-103130000D01*
X118150000Y-103210000D02*
X115975000Y-103210000D01*
X118094000Y-103570000D02*
X115975000Y-103570000D01*
X113895000Y-105131000D02*
X112592000Y-105131000D01*
X117513000Y-104851000D02*
X115975000Y-104851000D01*
X117953000Y-104051000D02*
X115975000Y-104051000D01*
X113895000Y-103450000D02*
X111753000Y-103450000D01*
X118146000Y-103250000D02*
X115975000Y-103250000D01*
X117887000Y-104211000D02*
X115975000Y-104211000D01*
X116367000Y-105811000D02*
X113503000Y-105811000D01*
X113895000Y-104651000D02*
X112219000Y-104651000D01*
X117769000Y-104451000D02*
X115975000Y-104451000D01*
X117451000Y-104931000D02*
X115975000Y-104931000D01*
X113895000Y-103370000D02*
X111740000Y-103370000D01*
X117921000Y-104131000D02*
X115975000Y-104131000D01*
X118165000Y-102930000D02*
X111705000Y-102930000D01*
X117996000Y-103931000D02*
X115975000Y-103931000D01*
X116516000Y-105731000D02*
X113354000Y-105731000D01*
X117937000Y-104091000D02*
X115975000Y-104091000D01*
X117089000Y-99704759D02*
X116459000Y-99704759D01*
X117117000Y-105291000D02*
X112753000Y-105291000D01*
X118085000Y-103611000D02*
X115975000Y-103611000D01*
X116879000Y-105491000D02*
X112991000Y-105491000D01*
X115337000Y-106131000D02*
X114533000Y-106131000D01*
X118141000Y-103290000D02*
X115975000Y-103290000D01*
X113895000Y-104251000D02*
X112001000Y-104251000D01*
X113895000Y-104531000D02*
X112145000Y-104531000D01*
X116711000Y-105611000D02*
X113159000Y-105611000D01*
X118009000Y-103891000D02*
X115975000Y-103891000D01*
X117200000Y-105211000D02*
X112670000Y-105211000D01*
X113895000Y-103410000D02*
X111746000Y-103410000D01*
X113895000Y-103250000D02*
X111724000Y-103250000D01*
X117677000Y-104611000D02*
X115975000Y-104611000D01*
X115737000Y-106051000D02*
X114133000Y-106051000D01*
X118205000Y-102890000D02*
G75*
G03*
X118205000Y-102890000I-3270000J0D01*
G01*
%TO.C,C111*%
X110260000Y-121089000D02*
X111670000Y-121089000D01*
X106840000Y-121009000D02*
X108180000Y-121009000D01*
X106324000Y-121769000D02*
X108180000Y-121769000D01*
X110260000Y-121449000D02*
X111936000Y-121449000D01*
X110260000Y-122209000D02*
X112294000Y-122209000D01*
X105990000Y-123170000D02*
X112450000Y-123170000D01*
X108587000Y-120009000D02*
X109853000Y-120009000D01*
X107711000Y-120329000D02*
X110729000Y-120329000D01*
X110260000Y-122249000D02*
X112306000Y-122249000D01*
X110260000Y-122530000D02*
X112379000Y-122530000D01*
X106704000Y-121169000D02*
X108180000Y-121169000D01*
X106061000Y-122530000D02*
X108180000Y-122530000D01*
X107870000Y-120249000D02*
X110570000Y-120249000D01*
X106045000Y-122610000D02*
X108180000Y-122610000D01*
X110260000Y-121009000D02*
X111600000Y-121009000D01*
X107444000Y-120489000D02*
X110996000Y-120489000D01*
X106234000Y-121969000D02*
X108180000Y-121969000D01*
X110260000Y-122690000D02*
X112409000Y-122690000D01*
X110260000Y-121729000D02*
X112096000Y-121729000D01*
X110260000Y-122570000D02*
X112387000Y-122570000D01*
X106038000Y-122650000D02*
X108180000Y-122650000D01*
X106005000Y-122890000D02*
X108180000Y-122890000D01*
X110260000Y-121129000D02*
X111704000Y-121129000D01*
X106159000Y-122169000D02*
X108180000Y-122169000D01*
X107386000Y-120529000D02*
X111054000Y-120529000D01*
X110260000Y-122049000D02*
X112238000Y-122049000D01*
X106122000Y-122289000D02*
X108180000Y-122289000D01*
X110260000Y-122970000D02*
X112442000Y-122970000D01*
X106031000Y-122690000D02*
X108180000Y-122690000D01*
X110260000Y-122890000D02*
X112435000Y-122890000D01*
X110260000Y-121409000D02*
X111910000Y-121409000D01*
X107639000Y-120369000D02*
X110801000Y-120369000D01*
X110260000Y-122449000D02*
X112361000Y-122449000D01*
X106408000Y-121609000D02*
X108180000Y-121609000D01*
X106736000Y-121129000D02*
X108180000Y-121129000D01*
X108418000Y-120049000D02*
X110022000Y-120049000D01*
X106286000Y-121849000D02*
X108180000Y-121849000D01*
X106877000Y-120969000D02*
X108180000Y-120969000D01*
X106110000Y-122329000D02*
X108180000Y-122329000D01*
X107381000Y-126710241D02*
X107381000Y-126080241D01*
X106079000Y-122449000D02*
X108180000Y-122449000D01*
X110260000Y-121809000D02*
X112136000Y-121809000D01*
X110260000Y-121889000D02*
X112172000Y-121889000D01*
X110260000Y-121569000D02*
X112010000Y-121569000D01*
X110260000Y-122650000D02*
X112402000Y-122650000D01*
X110260000Y-122770000D02*
X112421000Y-122770000D01*
X110260000Y-121529000D02*
X111986000Y-121529000D01*
X110260000Y-122489000D02*
X112370000Y-122489000D01*
X106915000Y-120929000D02*
X108180000Y-120929000D01*
X105998000Y-122970000D02*
X108180000Y-122970000D01*
X110260000Y-122369000D02*
X112341000Y-122369000D01*
X106134000Y-122249000D02*
X108180000Y-122249000D01*
X110260000Y-120969000D02*
X111563000Y-120969000D01*
X106025000Y-122730000D02*
X108180000Y-122730000D01*
X110260000Y-122089000D02*
X112253000Y-122089000D01*
X106770000Y-121089000D02*
X108180000Y-121089000D01*
X107330000Y-120569000D02*
X111110000Y-120569000D01*
X105996000Y-123010000D02*
X112444000Y-123010000D01*
X110260000Y-121849000D02*
X112154000Y-121849000D01*
X106584000Y-121329000D02*
X108180000Y-121329000D01*
X110260000Y-121609000D02*
X112032000Y-121609000D01*
X107038000Y-120809000D02*
X111402000Y-120809000D01*
X106250000Y-121929000D02*
X108180000Y-121929000D01*
X110260000Y-121769000D02*
X112116000Y-121769000D01*
X110260000Y-121929000D02*
X112190000Y-121929000D01*
X106996000Y-120849000D02*
X111444000Y-120849000D01*
X110260000Y-122610000D02*
X112395000Y-122610000D01*
X110260000Y-121689000D02*
X112076000Y-121689000D01*
X106364000Y-121689000D02*
X108180000Y-121689000D01*
X107083000Y-120769000D02*
X111357000Y-120769000D01*
X110260000Y-122329000D02*
X112330000Y-122329000D01*
X106504000Y-121449000D02*
X108180000Y-121449000D01*
X107276000Y-120609000D02*
X111164000Y-120609000D01*
X107506000Y-120449000D02*
X110934000Y-120449000D01*
X106642000Y-121249000D02*
X108180000Y-121249000D01*
X106014000Y-122810000D02*
X108180000Y-122810000D01*
X110260000Y-121969000D02*
X112206000Y-121969000D01*
X107128000Y-120729000D02*
X111312000Y-120729000D01*
X110260000Y-121049000D02*
X111636000Y-121049000D01*
X110260000Y-122129000D02*
X112267000Y-122129000D01*
X110260000Y-122289000D02*
X112318000Y-122289000D01*
X106089000Y-122409000D02*
X108180000Y-122409000D01*
X106053000Y-122570000D02*
X108180000Y-122570000D01*
X106304000Y-121809000D02*
X108180000Y-121809000D01*
X108055000Y-120169000D02*
X110385000Y-120169000D01*
X110260000Y-122009000D02*
X112222000Y-122009000D01*
X110260000Y-121649000D02*
X112054000Y-121649000D01*
X105993000Y-123050000D02*
X112447000Y-123050000D01*
X106218000Y-122009000D02*
X108180000Y-122009000D01*
X106386000Y-121649000D02*
X108180000Y-121649000D01*
X106146000Y-122209000D02*
X108180000Y-122209000D01*
X110260000Y-122409000D02*
X112351000Y-122409000D01*
X110260000Y-122850000D02*
X112431000Y-122850000D01*
X106202000Y-122049000D02*
X108180000Y-122049000D01*
X106454000Y-121529000D02*
X108180000Y-121529000D01*
X110260000Y-121169000D02*
X111736000Y-121169000D01*
X106430000Y-121569000D02*
X108180000Y-121569000D01*
X106002000Y-122930000D02*
X108180000Y-122930000D01*
X106478000Y-121489000D02*
X108180000Y-121489000D01*
X110260000Y-120929000D02*
X111525000Y-120929000D01*
X110260000Y-121329000D02*
X111856000Y-121329000D01*
X107788000Y-120289000D02*
X110652000Y-120289000D01*
X106955000Y-120889000D02*
X111485000Y-120889000D01*
X107176000Y-120689000D02*
X111264000Y-120689000D01*
X107570000Y-120409000D02*
X110870000Y-120409000D01*
X106672000Y-121209000D02*
X108180000Y-121209000D01*
X105990000Y-123130000D02*
X112450000Y-123130000D01*
X106173000Y-122129000D02*
X108180000Y-122129000D01*
X106099000Y-122369000D02*
X108180000Y-122369000D01*
X110260000Y-122730000D02*
X112415000Y-122730000D01*
X106019000Y-122770000D02*
X108180000Y-122770000D01*
X106268000Y-121889000D02*
X108180000Y-121889000D01*
X106804000Y-121049000D02*
X108180000Y-121049000D01*
X106187000Y-122089000D02*
X108180000Y-122089000D01*
X110260000Y-121209000D02*
X111768000Y-121209000D01*
X110260000Y-121289000D02*
X111827000Y-121289000D01*
X106530000Y-121409000D02*
X108180000Y-121409000D01*
X110260000Y-121369000D02*
X111884000Y-121369000D01*
X106613000Y-121289000D02*
X108180000Y-121289000D01*
X108818000Y-119969000D02*
X109622000Y-119969000D01*
X106556000Y-121369000D02*
X108180000Y-121369000D01*
X105992000Y-123090000D02*
X112448000Y-123090000D01*
X110260000Y-121249000D02*
X111798000Y-121249000D01*
X107066000Y-126395241D02*
X107696000Y-126395241D01*
X106070000Y-122489000D02*
X108180000Y-122489000D01*
X108161000Y-120129000D02*
X110279000Y-120129000D01*
X107225000Y-120649000D02*
X111215000Y-120649000D01*
X106009000Y-122850000D02*
X108180000Y-122850000D01*
X110260000Y-121489000D02*
X111962000Y-121489000D01*
X110260000Y-122930000D02*
X112438000Y-122930000D01*
X110260000Y-122810000D02*
X112426000Y-122810000D01*
X106344000Y-121729000D02*
X108180000Y-121729000D01*
X108280000Y-120089000D02*
X110160000Y-120089000D01*
X105990000Y-123210000D02*
X112450000Y-123210000D01*
X110260000Y-122169000D02*
X112281000Y-122169000D01*
X107958000Y-120209000D02*
X110482000Y-120209000D01*
X112490000Y-123210000D02*
G75*
G03*
X112490000Y-123210000I-3270000J0D01*
G01*
%TO.C,R104*%
X107220000Y-83720000D02*
X107220000Y-84050000D01*
X107220000Y-86460000D02*
X107220000Y-86130000D01*
X113760000Y-83720000D02*
X107220000Y-83720000D01*
X113760000Y-84050000D02*
X113760000Y-83720000D01*
X113760000Y-86130000D02*
X113760000Y-86460000D01*
X113760000Y-86460000D02*
X107220000Y-86460000D01*
%TO.C,U102*%
X90230000Y-118230000D02*
X90230000Y-82430000D01*
X87740000Y-118170000D02*
X87740000Y-82490000D01*
X74820000Y-82490000D02*
X74820000Y-118170000D01*
X87740000Y-82490000D02*
X82280000Y-82490000D01*
X74820000Y-118170000D02*
X87740000Y-118170000D01*
X90230000Y-82430000D02*
X72330000Y-82430000D01*
X72330000Y-82430000D02*
X72330000Y-118230000D01*
X72330000Y-118230000D02*
X90230000Y-118230000D01*
X80280000Y-82490000D02*
X74820000Y-82490000D01*
X80280000Y-82490000D02*
G75*
G03*
X82280000Y-82490000I1000000J0D01*
G01*
%TO.C,R101*%
X109320000Y-116300000D02*
X108990000Y-116300000D01*
X106910000Y-109760000D02*
X106580000Y-109760000D01*
X106580000Y-109760000D02*
X106580000Y-116300000D01*
X106580000Y-116300000D02*
X106910000Y-116300000D01*
X108990000Y-109760000D02*
X109320000Y-109760000D01*
X109320000Y-109760000D02*
X109320000Y-116300000D01*
D11*
%TO.C,J101*%
X132196000Y-75622500D02*
X132196000Y-87422500D01*
X135796000Y-84322500D02*
X135796000Y-78122500D01*
X128646000Y-75622500D02*
X132196000Y-75622500D01*
X120396000Y-75622500D02*
X124146000Y-75622500D01*
X135796000Y-78122500D02*
X132196000Y-78122500D01*
D14*
X125896000Y-74572500D02*
X126396000Y-75122500D01*
D11*
X132196000Y-84322500D02*
X135796000Y-84322500D01*
X117696000Y-87422500D02*
X117696000Y-75622500D01*
X117696000Y-75622500D02*
X117796000Y-75622500D01*
D14*
X126896000Y-74572500D02*
X125896000Y-74572500D01*
D11*
X120096000Y-87422500D02*
X117696000Y-87422500D01*
X132196000Y-87422500D02*
X124446000Y-87422500D01*
D14*
X126396000Y-75122500D02*
X126896000Y-74572500D01*
%TO.C,C109*%
X117895000Y-110450000D02*
X118210000Y-110450000D01*
X115470000Y-115690000D02*
X115470000Y-110450000D01*
X117895000Y-115690000D02*
X118210000Y-115690000D01*
X115470000Y-115690000D02*
X115785000Y-115690000D01*
X118210000Y-115690000D02*
X118210000Y-110450000D01*
X115470000Y-110450000D02*
X115785000Y-110450000D01*
%TO.C,U103*%
X98060000Y-107890000D02*
X96410000Y-107890000D01*
X96410000Y-118170000D02*
X101710000Y-118170000D01*
X104200000Y-118230000D02*
X104200000Y-107830000D01*
X101710000Y-107890000D02*
X100060000Y-107890000D01*
X96410000Y-107890000D02*
X96410000Y-118170000D01*
X93920000Y-107830000D02*
X93920000Y-118230000D01*
X104200000Y-107830000D02*
X93920000Y-107830000D01*
X93920000Y-118230000D02*
X104200000Y-118230000D01*
X101710000Y-118170000D02*
X101710000Y-107890000D01*
X98060000Y-107890000D02*
G75*
G03*
X100060000Y-107890000I1000000J0D01*
G01*
%TO.C,X101*%
X104240000Y-85710000D02*
X104240000Y-74310000D01*
X103490000Y-73560000D02*
X91340000Y-73560000D01*
X91340000Y-73560000D02*
X91340000Y-85710000D01*
X92090000Y-86460000D02*
X103490000Y-86460000D01*
X103490000Y-86460000D02*
G75*
G03*
X104240000Y-85710000I0J750000D01*
G01*
X91340000Y-85710000D02*
G75*
G03*
X92090000Y-86460000I750000J0D01*
G01*
X104240000Y-74310000D02*
G75*
G03*
X103490000Y-73560000I-750000J0D01*
G01*
%TO.C,R105*%
X94520000Y-95785000D02*
X94520000Y-96115000D01*
X101060000Y-98195000D02*
X101060000Y-98525000D01*
X94520000Y-98525000D02*
X94520000Y-98195000D01*
X101060000Y-95785000D02*
X94520000Y-95785000D01*
X101060000Y-96115000D02*
X101060000Y-95785000D01*
X101060000Y-98525000D02*
X94520000Y-98525000D01*
%TO.C,VR101*%
X137120000Y-112450000D02*
X147120000Y-112450000D01*
X132120000Y-109400000D02*
X132120000Y-121740000D01*
X124941000Y-109400000D02*
X132120000Y-109400000D01*
X137120000Y-118690000D02*
X147120000Y-118690000D01*
X124941000Y-121740000D02*
X132120000Y-121740000D01*
X147120000Y-112450000D02*
X147120000Y-118690000D01*
X124429000Y-113176000D02*
X124429000Y-117965000D01*
X137120000Y-110950000D02*
X137120000Y-120190000D01*
X132120000Y-110950000D02*
X137120000Y-110950000D01*
X132120000Y-120190000D02*
X137120000Y-120190000D01*
%TO.C,C103*%
X106640000Y-91225000D02*
X106640000Y-91540000D01*
X106640000Y-88800000D02*
X111880000Y-88800000D01*
X106640000Y-91540000D02*
X111880000Y-91540000D01*
X111880000Y-88800000D02*
X111880000Y-89115000D01*
X111880000Y-91225000D02*
X111880000Y-91540000D01*
X106640000Y-88800000D02*
X106640000Y-89115000D01*
%TO.C,C107*%
X111660000Y-115610000D02*
X111975000Y-115610000D01*
X114085000Y-115610000D02*
X114400000Y-115610000D01*
X114085000Y-110370000D02*
X114400000Y-110370000D01*
X111660000Y-115610000D02*
X111660000Y-110370000D01*
X111660000Y-110370000D02*
X111975000Y-110370000D01*
X114400000Y-115610000D02*
X114400000Y-110370000D01*
%TO.C,LS101*%
X127575000Y-93980000D02*
X127575000Y-91380000D01*
X130235000Y-91380000D02*
X127575000Y-91380000D01*
X130235000Y-93980000D02*
X127575000Y-93980000D01*
X130235000Y-96580000D02*
X128905000Y-96580000D01*
X130235000Y-95250000D02*
X130235000Y-96580000D01*
X130235000Y-93980000D02*
X130235000Y-91380000D01*
%TO.C,R102*%
X101060000Y-92175000D02*
X94520000Y-92175000D01*
X101060000Y-89765000D02*
X101060000Y-89435000D01*
X94520000Y-89435000D02*
X94520000Y-89765000D01*
X101060000Y-91845000D02*
X101060000Y-92175000D01*
X101060000Y-89435000D02*
X94520000Y-89435000D01*
X94520000Y-92175000D02*
X94520000Y-91845000D01*
%TO.C,C101*%
X78874000Y-79021000D02*
X78874000Y-79336000D01*
X78874000Y-79021000D02*
X84114000Y-79021000D01*
X78874000Y-81446000D02*
X78874000Y-81761000D01*
X78874000Y-81761000D02*
X84114000Y-81761000D01*
X84114000Y-79021000D02*
X84114000Y-79336000D01*
X84114000Y-81446000D02*
X84114000Y-81761000D01*
%TO.C,JP101*%
X117415000Y-93980000D02*
X120075000Y-93980000D01*
X120075000Y-93980000D02*
X120075000Y-96580000D01*
X117415000Y-93980000D02*
X117415000Y-96580000D01*
X117415000Y-96580000D02*
X120075000Y-96580000D01*
X117415000Y-92710000D02*
X117415000Y-91380000D01*
X117415000Y-91380000D02*
X118745000Y-91380000D01*
%TO.C,C106*%
X124690000Y-103691000D02*
X122609000Y-103691000D01*
X128919000Y-103370000D02*
X126770000Y-103370000D01*
X128960000Y-102930000D02*
X122500000Y-102930000D01*
X128394000Y-104691000D02*
X126770000Y-104691000D01*
X124690000Y-104091000D02*
X122744000Y-104091000D01*
X128180000Y-104971000D02*
X126770000Y-104971000D01*
X127822000Y-105331000D02*
X123638000Y-105331000D01*
X127506000Y-105571000D02*
X123954000Y-105571000D01*
X128732000Y-104051000D02*
X126770000Y-104051000D01*
X128791000Y-103891000D02*
X126770000Y-103891000D01*
X128278000Y-104851000D02*
X126770000Y-104851000D01*
X124690000Y-103330000D02*
X122535000Y-103330000D01*
X124690000Y-103851000D02*
X122656000Y-103851000D01*
X124690000Y-104851000D02*
X123182000Y-104851000D01*
X127995000Y-105171000D02*
X123465000Y-105171000D01*
X124690000Y-104371000D02*
X122874000Y-104371000D01*
X128936000Y-103250000D02*
X126770000Y-103250000D01*
X127884000Y-99664759D02*
X127254000Y-99664759D01*
X128861000Y-103651000D02*
X126770000Y-103651000D01*
X128804000Y-103851000D02*
X126770000Y-103851000D01*
X128763000Y-103971000D02*
X126770000Y-103971000D01*
X124690000Y-104331000D02*
X122854000Y-104331000D01*
X124690000Y-103090000D02*
X122508000Y-103090000D01*
X128214000Y-104931000D02*
X126770000Y-104931000D01*
X124690000Y-103771000D02*
X122632000Y-103771000D01*
X124690000Y-104651000D02*
X123040000Y-104651000D01*
X127564000Y-105531000D02*
X123896000Y-105531000D01*
X128472000Y-104571000D02*
X126770000Y-104571000D01*
X128606000Y-104331000D02*
X126770000Y-104331000D01*
X124690000Y-103971000D02*
X122697000Y-103971000D01*
X126789000Y-105931000D02*
X124671000Y-105931000D01*
X124690000Y-103250000D02*
X122524000Y-103250000D01*
X128420000Y-104651000D02*
X126770000Y-104651000D01*
X124690000Y-105011000D02*
X123314000Y-105011000D01*
X127674000Y-105451000D02*
X123786000Y-105451000D01*
X128626000Y-104291000D02*
X126770000Y-104291000D01*
X124690000Y-105091000D02*
X123387000Y-105091000D01*
X127162000Y-105771000D02*
X124298000Y-105771000D01*
X128586000Y-104371000D02*
X126770000Y-104371000D01*
X127774000Y-105371000D02*
X123686000Y-105371000D01*
X126532000Y-106011000D02*
X124928000Y-106011000D01*
X126895000Y-105891000D02*
X124565000Y-105891000D01*
X124690000Y-104691000D02*
X123066000Y-104691000D01*
X124690000Y-105131000D02*
X123425000Y-105131000D01*
X124690000Y-103931000D02*
X122683000Y-103931000D01*
X127239000Y-105731000D02*
X124221000Y-105731000D01*
X124690000Y-103891000D02*
X122669000Y-103891000D01*
X128496000Y-104531000D02*
X126770000Y-104531000D01*
X124690000Y-103410000D02*
X122548000Y-103410000D01*
X128664000Y-104211000D02*
X126770000Y-104211000D01*
X128700000Y-104131000D02*
X126770000Y-104131000D01*
X128905000Y-103450000D02*
X126770000Y-103450000D01*
X124690000Y-104291000D02*
X122834000Y-104291000D01*
X128073000Y-105091000D02*
X126770000Y-105091000D01*
X128840000Y-103731000D02*
X126770000Y-103731000D01*
X128035000Y-105131000D02*
X126770000Y-105131000D01*
X124690000Y-104891000D02*
X123214000Y-104891000D01*
X127725000Y-105411000D02*
X123735000Y-105411000D01*
X128957000Y-103010000D02*
X122503000Y-103010000D01*
X124690000Y-104491000D02*
X122940000Y-104491000D01*
X126992000Y-105851000D02*
X124468000Y-105851000D01*
X128682000Y-104171000D02*
X126770000Y-104171000D01*
X127912000Y-105251000D02*
X123548000Y-105251000D01*
X127311000Y-105691000D02*
X124149000Y-105691000D01*
X127620000Y-105491000D02*
X123840000Y-105491000D01*
X124690000Y-103450000D02*
X122555000Y-103450000D01*
X124690000Y-103130000D02*
X122512000Y-103130000D01*
X126670000Y-105971000D02*
X124790000Y-105971000D01*
X124690000Y-103611000D02*
X122589000Y-103611000D01*
X128960000Y-102850000D02*
X122500000Y-102850000D01*
X124690000Y-104411000D02*
X122896000Y-104411000D01*
X124690000Y-103811000D02*
X122644000Y-103811000D01*
X127444000Y-105611000D02*
X124016000Y-105611000D01*
X124690000Y-105051000D02*
X123350000Y-105051000D01*
X127380000Y-105651000D02*
X124080000Y-105651000D01*
X128446000Y-104611000D02*
X126770000Y-104611000D01*
X124690000Y-104531000D02*
X122964000Y-104531000D01*
X124690000Y-104931000D02*
X123246000Y-104931000D01*
X124690000Y-104451000D02*
X122918000Y-104451000D01*
X124690000Y-103370000D02*
X122541000Y-103370000D01*
X128646000Y-104251000D02*
X126770000Y-104251000D01*
X124690000Y-104011000D02*
X122712000Y-104011000D01*
X124690000Y-103210000D02*
X122519000Y-103210000D01*
X126363000Y-106051000D02*
X125097000Y-106051000D01*
X127569000Y-99349759D02*
X127569000Y-99979759D01*
X128871000Y-103611000D02*
X126770000Y-103611000D01*
X128816000Y-103811000D02*
X126770000Y-103811000D01*
X128146000Y-105011000D02*
X126770000Y-105011000D01*
X124690000Y-104971000D02*
X123280000Y-104971000D01*
X124690000Y-104051000D02*
X122728000Y-104051000D01*
X128716000Y-104091000D02*
X126770000Y-104091000D01*
X126132000Y-106091000D02*
X125328000Y-106091000D01*
X128366000Y-104731000D02*
X126770000Y-104731000D01*
X124690000Y-104731000D02*
X123094000Y-104731000D01*
X124690000Y-104571000D02*
X122988000Y-104571000D01*
X124690000Y-104811000D02*
X123152000Y-104811000D01*
X128958000Y-102970000D02*
X122502000Y-102970000D01*
X128952000Y-103090000D02*
X126770000Y-103090000D01*
X128777000Y-103931000D02*
X126770000Y-103931000D01*
X124690000Y-104771000D02*
X123123000Y-104771000D01*
X128948000Y-103130000D02*
X126770000Y-103130000D01*
X124690000Y-103651000D02*
X122599000Y-103651000D01*
X128520000Y-104491000D02*
X126770000Y-104491000D01*
X128246000Y-104891000D02*
X126770000Y-104891000D01*
X124690000Y-104211000D02*
X122796000Y-104211000D01*
X124690000Y-103290000D02*
X122529000Y-103290000D01*
X124690000Y-104251000D02*
X122814000Y-104251000D01*
X127080000Y-105811000D02*
X124380000Y-105811000D01*
X128308000Y-104811000D02*
X126770000Y-104811000D01*
X124690000Y-104131000D02*
X122760000Y-104131000D01*
X128945000Y-103170000D02*
X126770000Y-103170000D01*
X127954000Y-105211000D02*
X123506000Y-105211000D01*
X124690000Y-103571000D02*
X122580000Y-103571000D01*
X124690000Y-103530000D02*
X122571000Y-103530000D01*
X128748000Y-104011000D02*
X126770000Y-104011000D01*
X128828000Y-103771000D02*
X126770000Y-103771000D01*
X124690000Y-103170000D02*
X122515000Y-103170000D01*
X128851000Y-103691000D02*
X126770000Y-103691000D01*
X128880000Y-103571000D02*
X126770000Y-103571000D01*
X128542000Y-104451000D02*
X126770000Y-104451000D01*
X124690000Y-104171000D02*
X122778000Y-104171000D01*
X128954000Y-103050000D02*
X122506000Y-103050000D01*
X128960000Y-102890000D02*
X122500000Y-102890000D01*
X124690000Y-103490000D02*
X122563000Y-103490000D01*
X124690000Y-104611000D02*
X123014000Y-104611000D01*
X128889000Y-103530000D02*
X126770000Y-103530000D01*
X128912000Y-103410000D02*
X126770000Y-103410000D01*
X128897000Y-103490000D02*
X126770000Y-103490000D01*
X127867000Y-105291000D02*
X123593000Y-105291000D01*
X128564000Y-104411000D02*
X126770000Y-104411000D01*
X128931000Y-103290000D02*
X126770000Y-103290000D01*
X128941000Y-103210000D02*
X126770000Y-103210000D01*
X128337000Y-104771000D02*
X126770000Y-104771000D01*
X128110000Y-105051000D02*
X126770000Y-105051000D01*
X128925000Y-103330000D02*
X126770000Y-103330000D01*
X124690000Y-103731000D02*
X122620000Y-103731000D01*
X129000000Y-102850000D02*
G75*
G03*
X129000000Y-102850000I-3270000J0D01*
G01*
%TO.C,C102*%
X94210000Y-99595000D02*
X101450000Y-99595000D01*
X94210000Y-102335000D02*
X101450000Y-102335000D01*
X94210000Y-99595000D02*
X94210000Y-102335000D01*
X101450000Y-99595000D02*
X101450000Y-102335000D01*
%TO.C,C104*%
X71653000Y-123039000D02*
X73509000Y-123039000D01*
X72001000Y-122479000D02*
X73509000Y-122479000D01*
X71321000Y-124360000D02*
X77777000Y-124360000D01*
X71715000Y-122919000D02*
X73509000Y-122919000D01*
X72710000Y-127980241D02*
X72710000Y-127350241D01*
X75589000Y-122999000D02*
X77425000Y-122999000D01*
X75589000Y-123119000D02*
X77483000Y-123119000D01*
X71360000Y-123960000D02*
X73509000Y-123960000D01*
X71428000Y-123639000D02*
X73509000Y-123639000D01*
X75589000Y-123239000D02*
X77535000Y-123239000D01*
X71322000Y-124320000D02*
X77776000Y-124320000D01*
X71547000Y-123279000D02*
X73509000Y-123279000D01*
X71399000Y-123759000D02*
X73509000Y-123759000D01*
X75589000Y-122679000D02*
X77239000Y-122679000D01*
X73287000Y-121479000D02*
X75811000Y-121479000D01*
X72899000Y-121679000D02*
X76199000Y-121679000D01*
X71408000Y-123719000D02*
X73509000Y-123719000D01*
X75589000Y-122399000D02*
X77033000Y-122399000D01*
X71463000Y-123519000D02*
X73509000Y-123519000D01*
X75589000Y-122199000D02*
X76854000Y-122199000D01*
X75589000Y-123800000D02*
X77708000Y-123800000D01*
X75589000Y-123759000D02*
X77699000Y-123759000D01*
X75589000Y-124040000D02*
X77750000Y-124040000D01*
X72367000Y-122079000D02*
X76731000Y-122079000D01*
X75589000Y-122359000D02*
X76999000Y-122359000D01*
X75589000Y-124120000D02*
X77760000Y-124120000D01*
X75589000Y-123920000D02*
X77731000Y-123920000D01*
X71693000Y-122959000D02*
X73509000Y-122959000D01*
X72325000Y-122119000D02*
X76773000Y-122119000D01*
X72284000Y-122159000D02*
X76814000Y-122159000D01*
X75589000Y-122759000D02*
X77291000Y-122759000D01*
X71451000Y-123559000D02*
X73509000Y-123559000D01*
X75589000Y-123880000D02*
X77724000Y-123880000D01*
X75589000Y-122839000D02*
X77339000Y-122839000D01*
X71833000Y-122719000D02*
X73509000Y-122719000D01*
X75589000Y-122559000D02*
X77156000Y-122559000D01*
X75589000Y-124080000D02*
X77755000Y-124080000D01*
X75589000Y-123439000D02*
X77610000Y-123439000D01*
X75589000Y-123199000D02*
X77519000Y-123199000D01*
X71971000Y-122519000D02*
X73509000Y-122519000D01*
X73117000Y-121559000D02*
X75981000Y-121559000D01*
X75589000Y-122439000D02*
X77065000Y-122439000D01*
X71615000Y-123119000D02*
X73509000Y-123119000D01*
X75589000Y-123840000D02*
X77716000Y-123840000D01*
X75589000Y-124160000D02*
X77764000Y-124160000D01*
X71807000Y-122759000D02*
X73509000Y-122759000D01*
X73490000Y-121399000D02*
X75608000Y-121399000D01*
X71673000Y-122999000D02*
X73509000Y-122999000D01*
X71502000Y-123399000D02*
X73509000Y-123399000D01*
X75589000Y-123399000D02*
X77596000Y-123399000D01*
X71354000Y-124000000D02*
X73509000Y-124000000D01*
X74147000Y-121239000D02*
X74951000Y-121239000D01*
X73609000Y-121359000D02*
X75489000Y-121359000D01*
X71390000Y-123800000D02*
X73509000Y-123800000D01*
X75589000Y-123599000D02*
X77659000Y-123599000D01*
X75589000Y-122639000D02*
X77213000Y-122639000D01*
X72099000Y-122359000D02*
X73509000Y-122359000D01*
X72412000Y-122039000D02*
X76686000Y-122039000D01*
X75589000Y-123359000D02*
X77582000Y-123359000D01*
X72395000Y-127665241D02*
X73025000Y-127665241D01*
X71325000Y-124280000D02*
X77773000Y-124280000D01*
X72505000Y-121959000D02*
X76593000Y-121959000D01*
X75589000Y-123679000D02*
X77680000Y-123679000D01*
X71942000Y-122559000D02*
X73509000Y-122559000D01*
X72554000Y-121919000D02*
X76544000Y-121919000D01*
X71885000Y-122639000D02*
X73509000Y-122639000D01*
X71348000Y-124040000D02*
X73509000Y-124040000D01*
X75589000Y-122799000D02*
X77315000Y-122799000D01*
X71531000Y-123319000D02*
X73509000Y-123319000D01*
X71759000Y-122839000D02*
X73509000Y-122839000D01*
X71327000Y-124240000D02*
X73509000Y-124240000D01*
X71334000Y-124160000D02*
X73509000Y-124160000D01*
X71382000Y-123840000D02*
X73509000Y-123840000D01*
X73916000Y-121279000D02*
X75182000Y-121279000D01*
X71488000Y-123439000D02*
X73509000Y-123439000D01*
X72244000Y-122199000D02*
X73509000Y-122199000D01*
X73040000Y-121599000D02*
X76058000Y-121599000D01*
X75589000Y-122519000D02*
X77127000Y-122519000D01*
X71374000Y-123880000D02*
X73509000Y-123880000D01*
X71319000Y-124480000D02*
X77779000Y-124480000D01*
X75589000Y-122959000D02*
X77405000Y-122959000D01*
X73199000Y-121519000D02*
X75899000Y-121519000D01*
X71367000Y-123920000D02*
X73509000Y-123920000D01*
X72206000Y-122239000D02*
X73509000Y-122239000D01*
X72659000Y-121839000D02*
X76439000Y-121839000D01*
X75589000Y-123719000D02*
X77690000Y-123719000D01*
X72065000Y-122399000D02*
X73509000Y-122399000D01*
X71319000Y-124400000D02*
X77779000Y-124400000D01*
X75589000Y-123319000D02*
X77567000Y-123319000D01*
X72715000Y-121799000D02*
X76383000Y-121799000D01*
X75589000Y-122919000D02*
X77383000Y-122919000D01*
X73747000Y-121319000D02*
X75351000Y-121319000D01*
X71633000Y-123079000D02*
X73509000Y-123079000D01*
X71859000Y-122679000D02*
X73509000Y-122679000D01*
X75589000Y-122279000D02*
X76929000Y-122279000D01*
X75589000Y-124240000D02*
X77771000Y-124240000D01*
X75589000Y-122239000D02*
X76892000Y-122239000D01*
X71319000Y-124440000D02*
X77779000Y-124440000D01*
X75589000Y-124200000D02*
X77767000Y-124200000D01*
X75589000Y-122479000D02*
X77097000Y-122479000D01*
X75589000Y-123559000D02*
X77647000Y-123559000D01*
X72605000Y-121879000D02*
X76493000Y-121879000D01*
X75589000Y-122599000D02*
X77185000Y-122599000D01*
X72457000Y-121999000D02*
X76641000Y-121999000D01*
X75589000Y-122879000D02*
X77361000Y-122879000D01*
X75589000Y-123639000D02*
X77670000Y-123639000D01*
X72773000Y-121759000D02*
X76325000Y-121759000D01*
X71475000Y-123479000D02*
X73509000Y-123479000D01*
X75589000Y-123960000D02*
X77738000Y-123960000D01*
X71783000Y-122799000D02*
X73509000Y-122799000D01*
X75589000Y-123079000D02*
X77465000Y-123079000D01*
X75589000Y-124000000D02*
X77744000Y-124000000D01*
X75589000Y-122719000D02*
X77265000Y-122719000D01*
X75589000Y-123159000D02*
X77501000Y-123159000D01*
X75589000Y-123479000D02*
X77623000Y-123479000D01*
X71418000Y-123679000D02*
X73509000Y-123679000D01*
X71331000Y-124200000D02*
X73509000Y-124200000D01*
X75589000Y-123279000D02*
X77551000Y-123279000D01*
X75589000Y-122319000D02*
X76965000Y-122319000D01*
X72033000Y-122439000D02*
X73509000Y-122439000D01*
X72169000Y-122279000D02*
X73509000Y-122279000D01*
X71516000Y-123359000D02*
X73509000Y-123359000D01*
X72968000Y-121639000D02*
X76130000Y-121639000D01*
X71913000Y-122599000D02*
X73509000Y-122599000D01*
X71563000Y-123239000D02*
X73509000Y-123239000D01*
X71343000Y-124080000D02*
X73509000Y-124080000D01*
X71579000Y-123199000D02*
X73509000Y-123199000D01*
X71737000Y-122879000D02*
X73509000Y-122879000D01*
X73384000Y-121439000D02*
X75714000Y-121439000D01*
X71597000Y-123159000D02*
X73509000Y-123159000D01*
X75589000Y-123519000D02*
X77635000Y-123519000D01*
X71338000Y-124120000D02*
X73509000Y-124120000D01*
X75589000Y-123039000D02*
X77445000Y-123039000D01*
X72835000Y-121719000D02*
X76263000Y-121719000D01*
X72133000Y-122319000D02*
X73509000Y-122319000D01*
X71439000Y-123599000D02*
X73509000Y-123599000D01*
X77819000Y-124480000D02*
G75*
G03*
X77819000Y-124480000I-3270000J0D01*
G01*
%TO.C,C105*%
X94130000Y-102770000D02*
X101370000Y-102770000D01*
X101370000Y-102770000D02*
X101370000Y-105510000D01*
X94130000Y-105510000D02*
X101370000Y-105510000D01*
X94130000Y-102770000D02*
X94130000Y-105510000D01*
%TO.C,R106*%
X95790000Y-125500000D02*
X95790000Y-125830000D01*
X95790000Y-123420000D02*
X95790000Y-123090000D01*
X95790000Y-123090000D02*
X102330000Y-123090000D01*
X102330000Y-123090000D02*
X102330000Y-123420000D01*
X95790000Y-125830000D02*
X102330000Y-125830000D01*
X102330000Y-125830000D02*
X102330000Y-125500000D01*
%TO.C,LK101*%
X81820000Y-126770000D02*
X81820000Y-127100000D01*
X88360000Y-127100000D02*
X88360000Y-126770000D01*
X88360000Y-124360000D02*
X88360000Y-124690000D01*
X81820000Y-124360000D02*
X88360000Y-124360000D01*
X81820000Y-127100000D02*
X88360000Y-127100000D01*
X81820000Y-124690000D02*
X81820000Y-124360000D01*
%TO.C,C110*%
X96440000Y-122020000D02*
X96440000Y-121705000D01*
X101680000Y-122020000D02*
X101680000Y-121705000D01*
X101680000Y-119280000D02*
X96440000Y-119280000D01*
X101680000Y-122020000D02*
X96440000Y-122020000D01*
X96440000Y-119595000D02*
X96440000Y-119280000D01*
X101680000Y-119595000D02*
X101680000Y-119280000D01*
%TO.C,R103*%
X94520000Y-95350000D02*
X101060000Y-95350000D01*
X94520000Y-95020000D02*
X94520000Y-95350000D01*
X101060000Y-92610000D02*
X101060000Y-92940000D01*
X101060000Y-95350000D02*
X101060000Y-95020000D01*
X94520000Y-92940000D02*
X94520000Y-92610000D01*
X94520000Y-92610000D02*
X101060000Y-92610000D01*
%TD*%
M02*
