%TF.GenerationSoftware,KiCad,Pcbnew,(6.0.4-0)*%
%TF.CreationDate,2022-09-19T21:28:10-04:00*%
%TF.ProjectId,VIC1214Reloaded-1.0-001,56494331-3231-4345-9265-6c6f61646564,rev?*%
%TF.SameCoordinates,Original*%
%TF.FileFunction,Soldermask,Top*%
%TF.FilePolarity,Negative*%
%FSLAX46Y46*%
G04 Gerber Fmt 4.6, Leading zero omitted, Abs format (unit mm)*
G04 Created by KiCad (PCBNEW (6.0.4-0)) date 2022-09-19 21:28:10*
%MOMM*%
%LPD*%
G01*
G04 APERTURE LIST*
G04 Aperture macros list*
%AMRoundRect*
0 Rectangle with rounded corners*
0 $1 Rounding radius*
0 $2 $3 $4 $5 $6 $7 $8 $9 X,Y pos of 4 corners*
0 Add a 4 corners polygon primitive as box body*
4,1,4,$2,$3,$4,$5,$6,$7,$8,$9,$2,$3,0*
0 Add four circle primitives for the rounded corners*
1,1,$1+$1,$2,$3*
1,1,$1+$1,$4,$5*
1,1,$1+$1,$6,$7*
1,1,$1+$1,$8,$9*
0 Add four rect primitives between the rounded corners*
20,1,$1+$1,$2,$3,$4,$5,0*
20,1,$1+$1,$4,$5,$6,$7,0*
20,1,$1+$1,$6,$7,$8,$9,0*
20,1,$1+$1,$8,$9,$2,$3,0*%
G04 Aperture macros list end*
%ADD10C,1.600000*%
%ADD11O,1.600000X1.600000*%
%ADD12R,1.600000X1.600000*%
%ADD13C,1.200000*%
%ADD14O,1.308000X2.616000*%
%ADD15O,2.616000X1.308000*%
%ADD16C,1.508000*%
%ADD17R,1.800000X1.800000*%
%ADD18C,1.800000*%
%ADD19RoundRect,0.500000X0.500000X-1.000000X0.500000X1.000000X-0.500000X1.000000X-0.500000X-1.000000X0*%
%ADD20R,1.700000X1.700000*%
%ADD21O,1.700000X1.700000*%
%ADD22RoundRect,0.444500X3.784600X-0.800100X3.784600X0.800100X-3.784600X0.800100X-3.784600X-0.800100X0*%
%ADD23C,1.500000*%
%ADD24R,1.200000X1.200000*%
%ADD25R,13.500000X11.000000*%
G04 APERTURE END LIST*
D10*
%TO.C,C108*%
X128270000Y-101640000D03*
X128270000Y-106640000D03*
%TD*%
%TO.C,C111*%
X93980000Y-101600000D03*
X98980000Y-101600000D03*
%TD*%
%TO.C,R104*%
X93980000Y-98425000D03*
D11*
X101600000Y-98425000D03*
%TD*%
D12*
%TO.C,U102*%
X73660000Y-81280000D03*
D11*
X73660000Y-83820000D03*
X73660000Y-86360000D03*
X73660000Y-88900000D03*
X73660000Y-91440000D03*
X73660000Y-93980000D03*
X73660000Y-96520000D03*
X73660000Y-99060000D03*
X73660000Y-101600000D03*
X73660000Y-104140000D03*
X73660000Y-106680000D03*
X73660000Y-109220000D03*
X73660000Y-111760000D03*
X73660000Y-114300000D03*
X88900000Y-114300000D03*
X88900000Y-111760000D03*
X88900000Y-109220000D03*
X88900000Y-106680000D03*
X88900000Y-104140000D03*
X88900000Y-101600000D03*
X88900000Y-99060000D03*
X88900000Y-96520000D03*
X88900000Y-93980000D03*
X88900000Y-91440000D03*
X88900000Y-88900000D03*
X88900000Y-86360000D03*
X88900000Y-83820000D03*
X88900000Y-81280000D03*
%TD*%
D10*
%TO.C,R101*%
X107950000Y-113030000D03*
D11*
X107950000Y-120650000D03*
%TD*%
D13*
%TO.C,J101*%
X122675000Y-81995000D03*
X130175000Y-86995000D03*
X117675000Y-76995000D03*
X127675000Y-76995000D03*
X117675000Y-86995000D03*
X127675000Y-86995000D03*
X130175000Y-76995000D03*
D14*
X127675000Y-81995000D03*
D15*
X122675000Y-76995000D03*
X122675000Y-86995000D03*
D16*
X117675000Y-84495000D03*
X117675000Y-81995000D03*
X117675000Y-79495000D03*
D15*
X122675000Y-79495000D03*
X122675000Y-84495000D03*
%TD*%
D12*
%TO.C,C109*%
X115570000Y-107950000D03*
D10*
X115570000Y-110450000D03*
%TD*%
D12*
%TO.C,U103*%
X95250000Y-113030000D03*
D11*
X95250000Y-115570000D03*
X95250000Y-118110000D03*
X95250000Y-120650000D03*
X102870000Y-120650000D03*
X102870000Y-118110000D03*
X102870000Y-115570000D03*
X102870000Y-113030000D03*
%TD*%
D17*
%TO.C,VR101*%
X127000000Y-118070000D03*
D18*
X127000000Y-115570000D03*
X127000000Y-113070000D03*
D19*
X122900000Y-110820000D03*
X122900000Y-120320000D03*
%TD*%
D10*
%TO.C,C103*%
X93980000Y-82630000D03*
X93980000Y-87630000D03*
%TD*%
D12*
%TO.C,C107*%
X115570000Y-118110000D03*
D10*
X115570000Y-115610000D03*
%TD*%
D20*
%TO.C,LS101*%
X127635000Y-92710000D03*
D21*
X127635000Y-95250000D03*
%TD*%
D12*
%TO.C,C112*%
X115570000Y-102870000D03*
D10*
X115570000Y-100370000D03*
%TD*%
%TO.C,R102*%
X111760000Y-92075000D03*
D11*
X104140000Y-92075000D03*
%TD*%
D22*
%TO.C,U101*%
X63100000Y-121876000D03*
X63100000Y-117926000D03*
X63100000Y-113976000D03*
X63100000Y-109976000D03*
X63100000Y-106026000D03*
X63100000Y-102076000D03*
X63100000Y-98076000D03*
X63100000Y-94126000D03*
X63100000Y-90176000D03*
X63100000Y-86226000D03*
X63100000Y-82276000D03*
X63100000Y-78276000D03*
%TD*%
D10*
%TO.C,C101*%
X78820000Y-77470000D03*
X83820000Y-77470000D03*
%TD*%
D20*
%TO.C,JP101*%
X118745000Y-92710000D03*
D21*
X118745000Y-95250000D03*
%TD*%
D10*
%TO.C,C106*%
X123190000Y-101640000D03*
X123190000Y-106640000D03*
%TD*%
%TO.C,C102*%
X93980000Y-79930000D03*
X93980000Y-74930000D03*
%TD*%
D23*
%TO.C,Y101*%
X97430000Y-83820000D03*
X97430000Y-78920000D03*
D24*
X106680000Y-75470000D03*
X106680000Y-87270000D03*
D25*
X106680000Y-81370000D03*
%TD*%
D10*
%TO.C,C104*%
X94060000Y-92075000D03*
X99060000Y-92075000D03*
%TD*%
D12*
%TO.C,C105*%
X104140000Y-106680000D03*
D10*
X101640000Y-106680000D03*
%TD*%
%TO.C,LK101*%
X81915000Y-124460000D03*
D11*
X89535000Y-124460000D03*
%TD*%
D10*
%TO.C,C110*%
X100330000Y-124460000D03*
X95330000Y-124460000D03*
%TD*%
%TO.C,R103*%
X93980000Y-95250000D03*
D11*
X101600000Y-95250000D03*
%TD*%
M02*
